<?xml version="1.0" encoding="utf-8"?>
<!-- Generator: Adobe Illustrator 24.1.1, SVG Export Plug-In . SVG Version: 6.00 Build 0)  -->
<svg version="1.1" id="Layer_1" xmlns="http://www.w3.org/2000/svg" xmlns:xlink="http://www.w3.org/1999/xlink" x="0px" y="0px"
	 viewBox="0 0 966.3 828.4" style="enable-background:new 0 0 966.3 828.4;" xml:space="preserve">
<style type="text/css">
	.st0{fill:#10103B;}
	.st1{fill:url(#SVGID_1_);}
	.st2{fill:#00B0CB;}
	.st3{opacity:0.25;clip-path:url(#SVGID_3_);}
	.st4{fill:#29AAE1;}
	.st5{fill:#FFFFFF;}
	.st6{opacity:0.25;fill:#00B0CB;}
	.st7{fill:none;stroke:#FFFFFF;stroke-width:13.6539;}
</style>
<g>
	<path class="st0" d="M479.7,251.3v-85.7h6.9c2.9,0,5.3,2.4,5.3,5.3V246c0,2.9-2.4,5.3-5.3,5.3H479.7z"/>
	<path class="st0" d="M12.2,301.6v-85.7H5.3c-2.9,0-5.3,2.4-5.3,5.3l0,75.2c0,2.9,2.4,5.3,5.3,5.3H12.2z"/>
	<path class="st0" d="M479.7,303.7v-45h6.9c2.9,0,5.3,2.4,5.3,5.3v34.5c0,2.9-2.4,5.3-5.3,5.3H479.7z"/>
	<linearGradient id="SVGID_1_" gradientUnits="userSpaceOnUse" x1="246.0872" y1="828.3613" x2="246.0872" y2="-9.094947e-13">
		<stop  offset="0" style="stop-color:#10103B"/>
		<stop  offset="0.1431" style="stop-color:#11133C"/>
		<stop  offset="0.2773" style="stop-color:#121C41"/>
		<stop  offset="0.4079" style="stop-color:#15284A"/>
		<stop  offset="0.5364" style="stop-color:#183857"/>
		<stop  offset="0.6632" style="stop-color:#1C4D6A"/>
		<stop  offset="0.789" style="stop-color:#1E6884"/>
		<stop  offset="0.9114" style="stop-color:#168DA7"/>
		<stop  offset="1" style="stop-color:#00B0CB"/>
	</linearGradient>
	<path class="st1" d="M434.5,828.4H57.7c-27.4,0-49.7-22.3-49.7-49.7V49.7C7.9,22.3,30.2,0,57.7,0h376.8c27.4,0,49.7,22.3,49.7,49.7
		v728.9C484.2,806.1,461.9,828.4,434.5,828.4z M57.7,9C35.2,9,16.9,27.3,16.9,49.7v728.9c0,22.5,18.3,40.7,40.7,40.7h376.8
		c22.5,0,40.7-18.3,40.7-40.7V49.7C475.2,27.3,457,9,434.5,9H57.7z"/>
	<path class="st2" d="M434.5,767.5H57.7c-14.7,0-26.7-12-26.7-26.7V49.7C31,35,42.9,23,57.7,23h376.8c14.7,0,26.7,12,26.7,26.7
		v691.1C461.2,755.6,449.2,767.5,434.5,767.5z M57.7,26c-13.1,0-23.8,10.7-23.8,23.8v691.1c0,13.1,10.7,23.8,23.8,23.8h376.8
		c13.1,0,23.8-10.7,23.8-23.8V49.7c0-13.1-10.7-23.8-23.8-23.8H57.7z"/>
	<g>
		<defs>
			<path id="SVGID_2_" d="M32.4,740.8V49.7c0-13.9,11.3-25.2,25.2-25.2h376.8c13.9,0,25.2,11.3,25.2,25.2v691.1
				c0,13.9-11.3,25.2-25.2,25.2H57.7C43.7,766.1,32.4,754.8,32.4,740.8z"/>
		</defs>
		<clipPath id="SVGID_3_">
			<use xlink:href="#SVGID_2_"  style="overflow:visible;"/>
		</clipPath>
		<g class="st3">
			<g>
				<g id="XMLID_1_">
					<g>
						<path class="st4" d="M246,519.2c-5.5,0-10.8-1.9-15.2-5.4L-15.6,313.4c-15.6-12.8-24.6-31.8-24.6-52.3l0.1-39.8l1,0l-0.1,39.8
							c0,20.2,8.8,38.9,24.2,51.5l246.3,200.4c5,4,11.1,5.8,17.4,5c6.2-0.7,11.8-3.9,15.7-9c3.2-4.2,5-9.2,5.1-14.6l0-0.2l0.1-0.1
							v-42.8l-5.4-4.7l-18.7,14.3c-0.1,0.2-0.3,0.5-0.5,0.8l-0.3,0.4l-0.4-0.3l-230-187.1c-5.6-4.5-6.5-10.5-6.5-13.6
							c0-3.2,0.8-9.2,6.5-13.7l10.4-8.5L209.1,88.3c21.9-17.8,52.3-17.8,74,0l184.2,149.8l10.4,8.4c5.7,4.6,6.6,10.6,6.6,13.7
							c0,2.5-0.6,8.8-6.4,13.7l-28.6,23.4l-0.2-0.8c-0.6-2.7-1.7-6.6-4-8.7c-5-4.9-12-2.2-12.6-1.9l-15.3,11l7.1,36.7l0.1,0.1l0,0.2
							c0.7,4.2,2.3,7.8,4.6,10.8c3.9,5,9.6,8.2,15.9,8.9c6.3,0.7,12.4-1.1,17.3-5.1l45.1-36.8c15.4-12.7,24.2-31.5,24.2-51.6
							c-0.1-7.6-1.3-14.8-3.6-21.4c-4-11.9-11.1-22.2-20.7-30L312.5,50.5c-18.7-15.3-42.2-23.8-66.1-23.8h-0.2
							c-23.9,0-47.5,8.5-66.4,23.9L-15.1,209.7c-0.3,0.3-0.7,0.6-1,0.9c-0.3,0.3-0.7,0.7-1,1l-0.8,0.7v-1.2
							c-0.3-3.2-1.4-5.4-3.3-6.6c-3.3-2-8.1-0.1-8.7,0.2l-9.2,8.8l-0.7-0.7l9.4-8.9c0.2-0.1,5.7-2.5,9.7-0.1c2,1.2,3.3,3.4,3.7,6.5
							c0.1-0.1,0.2-0.2,0.3-0.3c0.3-0.3,0.7-0.7,1-1L179.1,49.8c19.1-15.5,42.9-24.1,67-24.1h0.2c24.1,0,47.8,8.5,66.7,24L507.7,208
							c9.7,7.9,17,18.4,21,30.4c2.3,6.7,3.5,14,3.7,21.7c0,20.4-9,39.5-24.6,52.4l-45.1,36.8c-5.1,4.2-11.5,6-18.1,5.3
							c-6.6-0.7-12.4-4-16.6-9.3c-2.4-3.1-4-6.9-4.8-11.1l-0.1-0.1l-7.3-38h0.5l15.4-11.1c0.1,0,8.1-3.5,13.8,2.1
							c2.2,2.1,3.4,5.6,4.1,8.4l27.4-22.4c5.5-4.6,6.1-10.6,6.1-13c0-3-0.8-8.6-6.2-13l-10.4-8.4L282.5,89.1
							c-21.3-17.5-51.2-17.5-72.8,0L25.4,239.7L15,248.2c-5.3,4.3-6.1,10-6.1,13c0,3,0.8,8.6,6.1,12.9l229.6,186.8
							c0.1-0.2,0.2-0.3,0.2-0.3l0.1-0.1l0.1-0.1l19.4-14.9l6.4,5.5v43.7l-0.1,0.1c-0.1,5.5-2,10.7-5.3,14.9
							c-4.1,5.3-9.9,8.6-16.4,9.3C247.9,519.2,246.9,519.2,246,519.2z"/>
						<rect x="-40.1" y="213.4" class="st4" width="1" height="7.3"/>
						<path class="st4" d="M246,808.5c-23.6,0-47.2-8-66.9-24L-15.6,626.2c-15.6-12.8-24.6-31.8-24.6-52.3c0-7.7,1.2-15.1,3.6-22
							c3.9-11.8,11.2-22.3,20.9-30.2l52.3-42.7c1.4-1.1,2.8-2,4.4-2.8l0.1-9.6l0.1-0.1c9.6-16,10.2-16,10.5-16
							c0.8,0,15.7,3.6,16.3,3.7l-0.1,0.6l0.5-0.5l0.2,0.2l0.4,2.3l7,36.5h-0.1c2,9.3-1.4,19-8.6,25l-41.7,34.2L15,561
							c-5.3,4.3-6.1,9.9-6.1,13c0,3,0.8,8.6,6.1,12.9l194.6,158.3c11.8,9.5,26.3,14.1,41.1,12.8c11.6-1,22.5-5.5,31.7-12.9
							l194.8-159c5.5-4.6,6.1-10.6,6.1-13c0-3-0.8-8.6-6.2-13l-10.4-8.4l-236-191.9c-5.5-4.4-8.7-11.1-9.1-18.4h0l-0.1-0.5l0.2-40.4
							l0.1-8.5l11.5-5.2l18.3,13.5l5.5,17.8l0.5,0.2c1.2,0.6,2.5,1.2,3.7,2.1l246.3,200.3c2.3,1.9,4.5,4,6.6,6.3
							c0.8-2,1.4-3.4,1.4-3.4l3.5-12.3l13.3,14.1v47.6c0,0.2-0.1,0.4-0.1,0.5l0,1.4c-0.5,19.8-9.4,38.2-24.5,50.6L313,784.4
							C293.3,800.5,269.6,808.5,246,808.5z M42.1,466.8l-0.1,9.9l-0.3,0.1c-1.7,0.8-3.1,1.7-4.5,2.8l-52.3,42.7
							c-9.6,7.8-16.7,18.1-20.6,29.8c-2.3,6.8-3.5,14.1-3.5,21.7c0,20.2,8.8,38.9,24.2,51.5l194.7,158.3
							c39.1,31.7,93.6,31.7,132.6-0.1l194.8-159.1c14.8-12.1,23.6-30.3,24.1-49.8v-1.4c0-0.1,0-0.2,0.1-0.3l0-0.4v-46.9l-0.2-0.2
							l-11.7-12.4l-3,10.7c0,0.1-0.7,1.8-1.7,4.2l-0.3,0.7l-0.5-0.6c-2.2-2.5-4.6-4.8-7-6.8L260.7,321.2c-1.1-0.9-2.3-1.4-3.5-2
							l-0.9-0.4l-5.5-17.9l-17.6-13l-10.4,4.7l-0.1,7.9l-0.2,40l0.1,0.4c0.2,7.2,3.4,13.7,8.7,18.1l236,191.9l10.4,8.4
							c5.7,4.6,6.6,10.6,6.6,13.7c0,2.5-0.6,8.8-6.4,13.7L283,745.8c-9.3,7.6-20.4,12.1-32.2,13.2c-15,1.3-29.9-3.4-41.8-13.1
							L14.4,587.6c-5.6-4.5-6.5-10.5-6.5-13.6c0-3.2,0.8-9.2,6.5-13.7l10.5-8.5l41.7-34.2c7.1-5.9,10.3-15.5,8.2-24.6l-0.1-0.6h0.1
							l-7.1-37.2c-4.6-1.1-14.4-3.4-15.8-3.6C50.8,452.5,45.4,461.3,42.1,466.8z"/>
						<path class="st4" d="M246,475.6c-5.6,0-10.9-1.9-15.3-5.4L-15.6,269.8C-30.1,258-39,240.3-40.1,221.4l0-0.6
							c-0.1-1.1-0.1-2.1-0.1-3.2c0-1.4,0-2.7,0.1-4.1l0-0.3c1.2-18.8,10.1-36.2,24.4-47.8L179.1,6.2C218.5-26,273.6-26,313,6
							l194.7,158.3c15.6,12.7,24.6,31.8,24.7,52.3c0,7.6-1.2,15-3.7,22.1c-4.1,11.9-11.3,22.3-20.9,30.1l-52.3,42.7
							c-5.1,4.2-11.4,6.1-17.9,5.4c-6.6-0.7-12.5-4-16.6-9.3c-2.5-3.2-4.1-6.9-4.8-10.9c-1.9-9.2,1.5-18.6,8.7-24.5l41.8-34.2
							l10.5-8.5c5.3-4.3,6.1-10,6.1-13c0-2.4-0.6-8.4-6.2-13L282.5,45.4c-10.3-8.5-23.2-13.1-36.3-13.1c-13.1,0-26,4.7-36.3,13.1
							L15,204.6c-5.3,4.3-6.1,10-6.1,13c0,3,0.8,8.6,6.1,13l10.4,8.4l236,191.8c6,4.9,9.5,12.5,9.3,20.5v0
							c-0.2,5.4-2.1,10.5-5.4,14.9C260.6,472.1,253.5,475.6,246,475.6z M246.1-17c-23.4,0-46.9,8-66.4,23.9L-15.1,166.1
							c-14.1,11.5-22.9,28.7-24,47.1l0,0.3c-0.1,1.4-0.1,2.7-0.1,4.1c0,1.1,0,2.1,0.1,3.2l0,0.6c1.1,18.6,9.9,36,24.1,47.7
							l246.3,200.4c4.2,3.4,9.3,5.2,14.7,5.2c7.1,0,14-3.4,18.4-9c3.2-4.2,5-9.2,5.2-14.4c0.2-7.6-3.1-15-8.9-19.7l-236-191.8
							l-10.4-8.4c-5.6-4.6-6.5-10.6-6.5-13.7c0-3.2,0.8-9.2,6.5-13.7L209.2,44.7c10.5-8.6,23.6-13.4,37-13.4
							c13.3,0,26.4,4.7,37,13.4l194.6,158.2c5.9,4.9,6.6,11.2,6.6,13.7c0,3.2-0.8,9.1-6.5,13.7l-10.5,8.5l-41.8,34.2
							c-6.9,5.7-10.1,14.7-8.4,23.5c0.7,3.8,2.2,7.3,4.6,10.4c4,5.1,9.7,8.3,16,9c6.2,0.7,12.3-1.1,17.1-5.1l52.3-42.7
							c9.5-7.7,16.6-18,20.6-29.7c2.4-7,3.6-14.4,3.6-21.8c-0.1-20.2-9-39-24.3-51.5L312.4,6.8C292.9-9,269.5-17,246.1-17z"/>
						<path class="st4" d="M245.9,764.9c-24.4,0-47.6-8.3-66.9-24L-15.6,582.6c-9.8-7.9-17-18.4-21-30.3c-2.4-7.1-3.6-14.5-3.6-21.8
							c-0.1-20.5,8.8-39.6,24.5-52.4l45.2-36.8c5.1-4.2,11.4-6.1,17.9-5.4c6.6,0.7,12.5,4,16.6,9.3c2.2,2.8,3.6,5.9,4.3,9.1l0.2,0.3
							c0.2,0.7,0.4,1.4,0.5,2.3c1.4,8.9-2,18-8.9,23.7L15,517.3c-5.3,4.3-6.1,10-6.1,13c0,3.6,1.1,8.8,6.1,12.9l194.6,158.3
							c21.4,17.5,51.4,17.4,72.8-0.1l184.3-150.5l10.5-8.5c5.3-4.4,6.1-10,6.1-13c0-2.4-0.6-8.4-6.2-13L230.7,316.2
							c-4.8-4-8-9.4-9-15.7c-0.4-2.9-0.4-5.7,0.1-8.4c0.7-4.2,2.4-8,5-11.4c4.1-5.2,9.9-8.5,16.4-9.3c6.5-0.8,13,1.1,18.1,5.3
							l246.3,200.4c14.5,11.9,23.4,29.5,24.4,48.1c0.2,1.3,0.3,2.7,0.3,4c0,20.5-9,39.6-24.6,52.4L313,740.7
							c-18,14.7-39.4,23-61.9,24C249.4,764.9,247.6,764.9,245.9,764.9z M44.7,436.7c-5.3,0-10.4,1.8-14.6,5.3l-45.2,36.8
							c-15.4,12.6-24.2,31.4-24.1,51.6c0,7.2,1.2,14.5,3.5,21.5c3.9,11.8,11.1,22.1,20.7,29.9l194.6,158.3
							c19.2,15.5,42.1,23.8,66.3,23.8c1.7,0,3.4,0,5-0.2l0,0c22.3-1,43.5-9.2,61.3-23.8l194.8-159c15.4-12.6,24.2-31.4,24.2-51.6
							c0-1.3-0.1-2.7-0.3-3.9c-1-18.4-9.7-35.7-24-47.5L260.7,277.5c-4.9-4-11.1-5.8-17.4-5.1c-6.3,0.7-11.8,3.9-15.7,8.9
							c-2.5,3.2-4.1,6.9-4.8,10.9c-0.5,2.6-0.5,5.3-0.1,8.1c1,6,4,11.2,8.6,15l246.3,200.3c5.9,4.9,6.6,11.2,6.6,13.7
							c0,3.1-0.8,9-6.4,13.7l-10.5,8.5L283,702.2c-21.8,17.8-52.2,17.9-74,0.1L14.4,543.9c-5.6-4.5-6.5-10.5-6.5-13.6
							c0-3.2,0.8-9.2,6.5-13.7l45.1-36.8c6.7-5.5,9.9-14.2,8.5-22.8c-0.1-0.6-0.2-1.2-0.4-1.8h0l-0.2-0.4c-0.7-3.2-2.1-6.2-4.2-9
							c-4-5-9.7-8.2-16-8.9C46.4,436.7,45.6,436.7,44.7,436.7z"/>
					</g>
				</g>
			</g>
		</g>
	</g>
	<g>
		<g>
			<path class="st0" d="M145.2,365.5h-28.7v-39.9h10.7V357h17L145.2,365.5z"/>
			<path class="st0" d="M168.1,324.7c4.2,0,7.9,0.9,11,2.7c3.1,1.8,5.5,4.3,7.2,7.4c1.7,3.1,2.5,6.6,2.5,10.5
				c0,4.1-0.9,7.7-2.6,10.9c-1.7,3.2-4.2,5.7-7.3,7.5c-3.1,1.8-6.7,2.7-10.8,2.7c-4.2,0-7.8-0.9-10.9-2.7c-3.1-1.8-5.5-4.3-7.2-7.4
				c-1.7-3.1-2.5-6.6-2.5-10.5c0-4,0.9-7.6,2.6-10.8c1.8-3.2,4.2-5.7,7.3-7.5C160.6,325.6,164.2,324.7,168.1,324.7z M158.5,345.6
				c0,3.4,0.9,6.3,2.6,8.5c1.7,2.2,4,3.3,7,3.3c2.9,0,5.2-1,7-3.1c1.8-2.1,2.7-5.1,2.7-9c0-3.4-0.9-6.2-2.6-8.4
				c-1.7-2.2-4.1-3.3-7-3.3c-1.8,0-3.4,0.5-4.9,1.5c-1.5,1-2.6,2.4-3.5,4.2C158.9,341.2,158.5,343.2,158.5,345.6z"/>
			<path class="st0" d="M216.8,325.5l14.9,39.5l-10.5,1.1l-2.9-8.5h-13.8l-2.8,7.9h-10.6l15-39.9H216.8z M211.3,338.3l-3.8,10.9h7.8
				L211.3,338.3z"/>
			<path class="st0" d="M254.9,365.5H237v-39.9h18.1c4,0,7.4,0.8,10.3,2.5c2.8,1.7,5,4,6.4,7c1.4,3,2.2,6.4,2.2,10.2
				c0,4.1-0.8,7.6-2.4,10.7c-1.6,3.1-3.9,5.4-6.8,7C261.9,364.6,258.6,365.5,254.9,365.5z M254.6,333.9h-6.9V357h6.5
				c2.6,0,4.7-1,6.3-3.1c1.6-2,2.4-5,2.4-8.8c0-3.4-0.7-6.1-2.2-8.2C259.3,335,257.2,333.9,254.6,333.9z"/>
			<path class="st0" d="M280.5,365.5v-39.9h10.7v39.9H280.5z"/>
			<path class="st0" d="M300.5,365.5v-39.9h9.9l15.4,21.7v-21.7h10.7v39.9h-10l-15.3-21v21H300.5z"/>
			<path class="st0" d="M361.5,350.2l0.9-7.8H378v20.9c-1.4,0.9-3.5,1.6-6.3,2.1c-2.7,0.5-5.2,0.8-7.4,0.8c-4.3,0-8.1-0.8-11.3-2.4
				c-3.2-1.6-5.7-4-7.4-7.1c-1.7-3.1-2.6-6.8-2.6-11c0-4.2,1-7.9,2.9-11.1c1.9-3.2,4.6-5.6,7.9-7.3c3.3-1.7,6.9-2.5,10.9-2.5
				c2.2,0,4.5,0.3,7,0.9c2.5,0.6,4.5,1.4,6,2.4l-3.2,7.2c-2-0.7-3.7-1.1-5.2-1.4c-1.5-0.3-3-0.4-4.5-0.4c-1.7,0-3.4,0.5-5,1.4
				c-1.7,0.9-3,2.3-4.1,4.1c-1.1,1.8-1.6,4-1.6,6.6c0,2.7,0.5,4.9,1.5,6.7c1,1.8,2.3,3.1,3.9,3.9c1.6,0.8,3.3,1.2,5.1,1.2
				c1.2,0,2.4-0.1,3.8-0.4v-6.9H361.5z"/>
		</g>
		<g>
			<path class="st5" d="M374.4,443.6H120.7c-2,0-3.7-1.6-3.7-3.7V389c0-2,1.6-3.7,3.7-3.7h253.7c2,0,3.7,1.6,3.7,3.7v50.9
				C378.1,441.9,376.4,443.6,374.4,443.6z"/>
			<rect x="117" y="385.3" class="st2" width="210.2" height="58.2"/>
			<g>
				<path class="st5" d="M212.7,402.8c1.6,0,3.1,0.3,4.4,0.8s2.4,1.3,3.2,2.4s1.2,2.2,1.2,3.5c0,0.8-0.2,1.5-0.6,2.3
					c-0.4,0.8-0.9,1.4-1.6,1.9c0.9,0.6,1.6,1.4,2.1,2.3c0.6,0.9,0.8,1.9,0.8,2.9c0,1.5-0.4,2.8-1.1,4c-0.8,1.1-1.9,2-3.3,2.7
					s-3.2,1-5.1,1c-2.9,0-5.3-0.7-7-2c-1.7-1.3-2.6-3.2-2.6-5.6c0-1,0.3-2,0.8-2.9c0.6-0.9,1.3-1.7,2.2-2.3
					c-0.6-0.6-1.2-1.2-1.6-1.9c-0.4-0.7-0.6-1.5-0.6-2.3c0-1.3,0.4-2.5,1.2-3.5s1.8-1.8,3.2-2.4
					C209.6,403.1,211.1,402.8,212.7,402.8z M212.7,415.8c-0.9,0.1-1.6,0.5-2.1,1.1c-0.5,0.6-0.8,1.2-0.8,1.7c0,0.7,0.3,1.2,0.9,1.8
					s1.2,0.8,2,0.8s1.4-0.3,2-0.8c0.6-0.5,0.9-1.1,0.9-1.8c0-0.6-0.3-1.2-0.8-1.7C214.2,416.3,213.5,416,212.7,415.8z M212.6,408.2
					c-0.6,0-1.1,0.2-1.4,0.6c-0.3,0.4-0.5,0.8-0.5,1.2c0,0.5,0.2,0.9,0.5,1.3c0.4,0.4,0.9,0.6,1.5,0.7c0.6-0.1,1.1-0.3,1.4-0.8
					c0.3-0.4,0.5-0.9,0.5-1.3c0-0.4-0.2-0.8-0.5-1.2C213.8,408.4,213.3,408.2,212.6,408.2z"/>
				<path class="st5" d="M223.7,415.8c0-2,0.5-3.9,1.5-5.5c1-1.6,2.4-2.9,4.1-3.8c1.8-0.9,3.7-1.4,5.9-1.4c2.2,0,4.2,0.5,5.9,1.4
					c1.8,0.9,3.1,2.2,4.1,3.8c1,1.6,1.5,3.4,1.5,5.5c0,2.1-0.5,3.9-1.5,5.6c-1,1.7-2.4,2.9-4.1,3.9c-1.8,0.9-3.7,1.4-6,1.4
					c-2.2,0-4.2-0.5-5.9-1.4c-1.7-0.9-3.1-2.2-4.1-3.9C224.2,419.7,223.7,417.8,223.7,415.8z M230.5,415.7c0,1.6,0.4,2.9,1.3,4
					s2,1.6,3.4,1.6s2.5-0.5,3.4-1.5c0.9-1,1.3-2.3,1.3-3.9c0-1.6-0.4-2.8-1.3-3.9c-0.9-1-2-1.5-3.4-1.5c-1.4,0-2.5,0.5-3.4,1.5
					C231,412.9,230.5,414.2,230.5,415.7z"/>
				<path class="st5" d="M248.2,407.3c0-2,0.6-3.6,1.8-4.8c1.2-1.2,2.8-1.8,4.8-1.8c2.1,0,3.7,0.6,4.8,1.8c1.2,1.2,1.7,2.8,1.7,4.9
					c0,2-0.6,3.6-1.8,4.8c-1.2,1.2-2.9,1.8-4.9,1.8c-2,0-3.6-0.6-4.7-1.8C248.8,410.9,248.2,409.3,248.2,407.3z M253.2,407.3
					c0,0.7,0.1,1.3,0.3,1.7c0.2,0.4,0.6,0.5,1.1,0.5c0.6,0,1-0.2,1.3-0.5c0.3-0.3,0.4-0.9,0.4-1.6s-0.1-1.3-0.3-1.6
					c-0.2-0.4-0.6-0.6-1.2-0.6C253.8,405.1,253.2,405.9,253.2,407.3z M273.9,400.5L263.1,426h-6.8l10.8-25.5H273.9z M268.9,419.4
					c0-2,0.6-3.6,1.8-4.8c1.2-1.2,2.8-1.8,4.8-1.8c2.1,0,3.7,0.6,4.8,1.8c1.2,1.2,1.7,2.8,1.7,4.9c0,2-0.6,3.6-1.8,4.8
					c-1.2,1.2-2.9,1.8-4.9,1.8c-2,0-3.6-0.6-4.7-1.8C269.5,423.1,268.9,421.5,268.9,419.4z M273.9,419.4c0,0.7,0.1,1.3,0.3,1.7
					s0.6,0.5,1.1,0.5c0.6,0,1-0.2,1.3-0.5c0.3-0.3,0.4-0.9,0.4-1.6c0-0.7-0.1-1.3-0.3-1.6c-0.2-0.4-0.6-0.6-1.2-0.6
					C274.4,417.3,273.9,418,273.9,419.4z"/>
			</g>
			<path class="st0" d="M374.4,446.1H120.7c-3.4,0-6.2-2.8-6.2-6.2V389c0-3.4,2.8-6.2,6.2-6.2h253.7c3.4,0,6.2,2.8,6.2,6.2v50.9
				C380.6,443.3,377.8,446.1,374.4,446.1z M120.7,387.8c-0.6,0-1.2,0.5-1.2,1.2v50.9c0,0.6,0.5,1.2,1.2,1.2h253.7
				c0.6,0,1.2-0.5,1.2-1.2V389c0-0.6-0.5-1.2-1.2-1.2H120.7z"/>
		</g>
	</g>
	<path class="st0" d="M276.6,798.5h-61c-3.6,0-6.6-2.9-6.6-6.6l0,0c0-3.6,2.9-6.6,6.6-6.6h61c3.6,0,6.6,2.9,6.6,6.6l0,0
		C283.1,795.6,280.2,798.5,276.6,798.5z"/>
</g>
<g>
	<path class="st0" d="M788.9,570c-79,0-151.2-53.2-171.8-133.2c-24.4-94.7,32.8-191.6,127.5-216.1c94.7-24.4,191.6,32.8,216.1,127.5
		l0,0c24.4,94.7-32.8,191.6-127.5,216.1C818.4,568.1,803.5,570,788.9,570z M788.9,226.3c-13.7,0-27.6,1.7-41.5,5.3
		C658.6,254.4,605,345.3,627.9,434c22.9,88.8,113.7,142.4,202.5,119.5c43-11.1,79.1-38.2,101.7-76.5s28.9-83,17.8-126l0,0
		C930.6,276.2,862.9,226.3,788.9,226.3z"/>
	<path class="st6" d="M906.4,310.3c-0.2,0.8-1.2,2.1-1.8,2c-6.4-0.4-12.7-1-19.6-1.6c-0.7-2.6-1.4-5.5-2.3-8.8
		c-7.7,3.5-16.2,4-22.3,10.1c-1.2,1.2-3.6,1.8-5.4,1.9c-4.8,0.2-7.8,3.1-11.1,6.1c-2.2,1.9-2.1,3.8-1.2,5.9c1.6,3.8,0.9,6.7-2.1,9.7
		c-3.3,3.2-6.1,7-8.8,10.7c-0.9,1.2-1.8,3.5-1.2,4.5c0.7,1.5,2.8,2.5,4.3,3.7c0.5-0.2,1.1-0.4,1.6-0.6c-0.5,2-1,3.9-1.4,5.9
		c-0.2,1-0.3,2.1-0.2,3.1c0.6,7.9,4,14,11.5,17.5c3,1.4,5.8,3.5,8.4,5.7c3.1,2.7,6,1.4,9,0.3c2.7-1,5.3-2.3,8.1-3.2
		c2.8-0.9,5.2-1.8,7.3-4.3c1.4-1.7,5.9-3.3,7.4-2.3c5,3.1,9.8,1.3,14.8,0.8c0.6,2.2,1.5,4.2,1.5,6.2c0,5.8,2.5,10.2,6.9,13.7
		c0.8,0.6,1.3,1.5,2,2.1c7,5.3,10.4,11.4,6.4,20.3c-1.5,3.3,0.2,7,3.9,8.7c2.7,1.2,4.1,3.2,4.5,6c0.8,6.1,3.2,11.1,8.8,14.5
		c3.3,2,4.3,9,2.5,12.6c-17.9,36.6-45.2,63.6-82.6,79.8c-44,19.1-88.5,19.3-132.4,0.1c-41.1-17.9-70.2-48.1-87.1-89.8
		c-10.9-26.7-14-54.4-10.5-83c0.1-0.5,0.3-1,0.5-1.5c0.9,4.7,3,7.5,8.1,7.7c1,0,2.5,2.5,2.7,4c1,6.4,3.9,11.4,8.8,15.7
		c2.5,2.2,4.6,3.5,8.8,1.5c-1-1.8-1.7-4.1-3.2-5.4c-4.4-3.9-8.3-8-9.3-15.5c1.7,0.8,3.7,1.2,3.9,2c2.2,7.1,7.9,11,13,15.5
		c1,0.9,1.8,2.3,2.2,3.6c0.4,1.4-0.3,3.8,0.5,4.5c3,2.3,4.7,6.6,9.4,6.3c2.8-0.2,5.6,0.2,8.4-0.1c1.3-0.1,2.6-1.3,3.9-1.8
		c1.5-0.5,3.1-0.8,4.9-1.3c0.2,4.1,2.5,4.6,5.7,4.1c4.9-0.7,9.5,0.5,13.2,4c4.3,4.1,9.1,5,14.6,3.3c1.5-0.4,3-0.6,4.7-0.8
		c0.6,1.3,1.1,2.4,1.7,3.5c2.3,4.1,2.5,7.8-1.6,11c-2.6,2-3.3,4.6-2,7.8c0.5,1.2,1,2.5,0.8,3.7c-1,6.4,3.2,9.4,7.6,12.6
		c4.1,3,9.2,5.1,11,10.6c0.2,0.6,1.5,0.9,2.4,1.2c4.5,1.3,9.1,2.4,13.5,4c1.1,0.4,2.1,2.1,2.5,3.4c1.9,6.9,3.5,13.9,5.5,20.8
		c0.6,2,2.2,3.7,3.3,5.5c0.4-0.2,0.8-0.4,1.2-0.6c0.1,1.2,0.3,2.5,0.2,3.7c-0.3,6.1,1.3,11.1,7,14.4c1.4,0.8,2.1,3.6,2.2,5.5
		c0.3,10.4,7.9,15.5,15,20.9c2.1,1.6,4.7,3.3,7.1,3.5c3.7,0.3,7.5-0.7,11.3-1.4c0.3-0.1,0.2-2.1,0.2-3.3c0-0.2-0.6-0.5-1-0.6
		c-6-1.5-8.4-5.2-7.3-11.3c0.1-0.7-0.4-1.6-0.5-2c-2.8-0.5-5.3-0.9-9.2-1.6c1.8-2.3,2.8-3.3,3.5-4.5c1.1-2.2,1.3-4.1-2.1-4.2
		c-0.8,0-1.6-1-2.4-1.5c0.7-0.7,1.3-1.7,2.1-2.1c6.6-3.4,12.5-7,14.1-15.3c0.7-3.9,2.9-7.6,4.7-11.2c1.7-3.3,2-6.3-0.3-9.4
		c-0.7-0.9-1.1-1.9-1.6-2.9c-1.9-4.2,0.1-8,4.4-9.2c2.5-0.7,5.1-1.6,7-3.2c3.2-2.5,4.3-5.9,2.9-10.1c-0.9-2.9-0.8-6.1-1.5-9.1
		c-1-4.2,0.2-7.9,1.9-11.7c1.3-3.1,1.8-6.5,2.8-10.8c-6.1,1.1-9.6-1.3-12.8-4.7c-0.8-0.8-3.1-0.8-4.5-0.4
		c-6.7,1.8-13.3,3.2-20.3,1.8c-2.4-0.5-3.8-1.3-4.3-3.7c-0.4-1.7-0.9-3.6-1.9-5.1c-3.5-5.2-4.6-5.7-10.8-3.9c-3.4,1-5.7,0.3-8.1-2.2
		c-4.7-4.9-4.9-4.7-9.9-5.5c-2,4.6-8.8,6.2-12.9,3.1c-4.1-3.2-12.7-1.6-14.4,3.1c-2.2,6.2-6,9-12.5,8.4c-1.5-0.1-3.1,0.1-4.9,0.2
		c-1.6-4.6-3.2-9.2-4.9-14c-3.1,0.1-6.1,0.3-9.3,0.4c-0.7-3.8,3.6-7.9-1.1-11.4c-2.7,3-5.5,5.9-8,9c-2.7,3.4-6.8,3.6-9.9,2.5
		c-2.8-1-4.6-4.3-4.5-8.2c0.2-11.2,5.7-18.9,17.2-21.5c4.2-1,8.4-2.1,13-3.3c0.4,5.7,3.9,7,9,6.6c-0.2-0.9-0.3-1.9-0.7-2.6
		c-3.2-5.4-1.2-9.9,2.6-14c1.3-1.4,2.5-3,3.9-4.4c2.1-2.1,2.6-4.7,3.4-7.6c1.5-5.2,4.2-10.6,7.8-14.6c4.2-4.5,8-9,10.8-14.5
		c1-2.1,2.3-3.2,5-2.6c0.9,0.2,2.2-1.3,2.8-2.8c-0.6,0-1.1,0-1.6-0.2c-1.4-0.5-2.9-1-4.1-1.8c-0.2-0.2,0.4-2.6,1-2.7
		c1.8-0.4,3.9-0.9,5.5-0.3c3.2,1.4,7,0.7,8.8-2.1c0.5-0.7,1.4-1.1,2.2-1.6c0.3,1,1.2,2.2,0.9,3.1c-1.4,4.4-1.4,4.6,3.1,4.9
		c2.6,0.1,5.2,0.1,7.8,0.2c-0.1-2-0.1-2-9.2-7c0.8-0.8,1.5-1.7,2.3-2.2c1.7-1.1,3.1-1.9,2.6-4.5c-0.5-2.3-1.1-4-3.7-4.2
		c-3.3-0.3-4.8-2.3-5.3-5.5c-0.3-1.6-1-3.1-1.6-4.9c-3.5,2.6-6.6,4.8-10.2,7.4c-0.7-3.4-1.2-5.7-1.6-8.1c-3.7,0-7.2-0.1-10.7,0.1
		c-2.6,0.1-5.4,4-5,6.6c0.1,0.6,0.3,1.1,0.4,1.6c1.8,7.3,1.7,7.2-4.2,11.9c-1.5,1.2-1.8,3.8-2.7,5.7c-0.8,1.7-1.8,3.3-2.7,4.9
		c-0.5-0.1-1.1-0.2-1.6-0.3c-0.4-1.7-1.1-3.4-1.3-5.1c-0.4-3.4-2.1-4-5.2-3.4c-6.1,1.1-9.3-0.4-11.2-4.8c-0.3-0.8-0.3-2.4,0.3-2.9
		c5.4-5.2,10.9-10.3,16.7-15.7c1.4,2.2,2.1,3.3,3.4,5.3c2.2-1.9,4.3-3.8,6.5-5.7c-0.7-0.8-1.5-1.7-1.9-2.1c2.6-2.8,4.8-5.2,7-7.7
		c3.1-3.6,11.6-4.8,16-1.8c-3.1,3-6.2,5.9-10.1,9.6c5.5-0.1,10.1-0.1,14.6-0.5c0.9-0.1,2.2-1.7,2.3-2.7c0.3-2.3,1.1-3.7,3.5-3.9
		c3.7-0.3,5.1-2.5,4.7-6.2c-3.2,0.4-5.8-0.1-6.1-4.1c0-0.7-1.1-1.8-1.9-1.8c-7.5-1-14.8-4.1-22.6,0c-7.7,4-8.6,4.7-6.1,13.8
		c-2.5-0.2-5.4,0.3-6.6-0.8c-3.8-3.6,1.7-5.9,2-9.1c-8.6-0.1-12.7,1.9-13.2,6.7c1.1,0.2,2.3,0.5,4.2,0.9c-0.4,1.3-0.4,3.4-1.1,3.8
		c-2.8,1.2-5,2.3-7,5.1c-1.4,1.9-5.6,1.7-8.9,2.6c-0.6-1.7-1.1-3.2-1.9-5.4c5.7-0.8,10.1-3.1,11.4-9.3c-1.6-1.3-2.9-1.1-4.3,1.1
		c-3.3,5.2-7.9,5.9-12.5,2.1c-2.9-2.4-9.7-2-12.5,1c-1.8,1.8-3.2,3.9-4.8,5.9c-0.5,0.6-0.9,1.3-1.9,2.8c2.9-0.7,4.9-1.8,6.8-1.6
		c1.2,0.1,2.2,2,2.9,3.5c2.9,1.3,6.8-3.4,10.3,1.4c-3.7,1-8.2,3.5-9.9,2.3c-3.4-2.5-6.5-1.3-9.7-1.8c-2.7-0.4-5.4-0.5-8.5-0.8
		c23.7-26.3,52.8-43.5,87.3-51.1c39.1-8.6,76.5-3.4,112.3,14.8c-2.2,2.3-4.4,4.1-5.9,6.4c-1.9,2.9-0.4,4.8,2.9,5.8
		c2.2,0.6,3.9,2.6,6.2,4.3c1.4-0.9,3.2-2.1,5.4-3.6c1,2.4,1.8,4.6,2.8,6.9c-3.3,0.8-6.2,1.6-9.1,2.3c-3.2,0.8-5,2.7-5.7,5.9
		c-0.9,3.9-2.8,7.1-7,7.9c-4,0.8-3.2,3.8-2.7,6.2c0.3,1.4,2,2.5,3,3.7c0.3-0.2,0.7-0.4,1-0.6c-0.1,1.4-0.1,2.7-0.2,3.8
		c-4.7,1.2-9.1,2.1-13.4,3.6c-1.2,0.4-2.8,2.8-2.6,4c0.9,7.7,2.9,13.7,12.4,10.4c0.4-0.1,0.8-0.2,1.2-0.3c4.2-1.1,8.1-2.3,8.5-8
		c0.2-2.8,2.3-5.4,3.3-8.2c0.8-2.2,2.2-3,4.5-3.6c2.4-0.7,4.4-2.8,6.1-4.1c5.4,2.3,11,4.7,17.8,7.6c-2.6,1.3-4.5,2.2-6.4,3.1
		c2.5,3.5,8.3,3.1,8.9-0.9c0.3-2-0.3-4.2-0.5-6.8c-4.3-2.5-11.8-0.8-13.5-8.4c6.5-3.2,15.1,0.6,18.1,7c1.4,3,4.8,5.1,7.8,8.1
		c1.7-5.2-1.6-10.5,3.5-12.8c2.5,3,4.4,7.1,7.4,8.5c6.1,2.7,7.8,8.1,11.4,12.9c-3.9,2.3-7.6,2.8-11.3,0.6c-4.6-2.7-8.8-1.3-13.1,1
		C906.1,308.1,906.6,309.3,906.4,310.3z"/>
	<g>
		<g>
			<path class="st7" d="M888.8,545.7c-0.2-0.9-0.5-1.9-0.8-2.8c-1.6-5.3-4.2-10.4-7.4-14.9c-3.2-4.6-7.2-8.6-11.8-11.9
				c-2.3-1.6-4.7-3.1-7.2-4.4c-2.5-1.3-5-2.2-7.5-3.2c-10.1-3.9-20.6-6.4-31.1-8.1c-10.6-1.7-21.2-2.4-31.9-2.5
				c-10.7,0-21.3,0.5-31.9,2.1c-10.6,1.5-21.1,3.8-31.2,7.4c-5.1,1.7-10,3.9-14.9,6.4c-4.9,2.7-9.4,6.2-13.2,10.3
				c-5.4,5.9-9.4,13.1-11.5,20.8c-3.8,7.4-31.9,63.7-10.4,87.2c6.3,6.9,12.4,10.4,18.5,10.6c0.2,0,0.4,0,0.6,0c9.7,0,18.2-8,28-17.3
				c13.2-12.5,29.5-27.9,55.2-30.1c1.9,0,3.7,0,5.6,0c3.6,0,7.1,0,10.7,0.1c25.5,2.2,41.7,17.6,54.9,30.1c9.8,9.3,18.3,17.3,28,17.3
				c0.2,0,0.4,0,0.6,0c6.1-0.2,12.2-3.7,18.5-10.6C919.5,609.3,894,556,888.8,545.7z"/>
			<path class="st7" d="M744.8,500.4c-1.4-2.4-4.3-3.5-7-2.9c-9.8,2.4-18.8,5.6-26.6,9.6c-4.4,2.2-8.4,5-12,8.2
				c-2.4,2.2-2.8,5.8-0.9,8.4l3.5,4.9c3.8-4.7,8.7-8.7,14.4-11.6c9.1-4.6,20.2-8.1,32.3-10.5L744.8,500.4z"/>
			<path class="st7" d="M829.8,506.5c12.1,2.4,23.1,5.9,32.3,10.5c5.7,2.9,10.5,6.8,14.4,11.6l3.5-4.9c1.9-2.6,1.5-6.2-0.9-8.4
				c-3.6-3.2-7.6-6-12-8.2c-7.8-4-16.9-7.2-26.6-9.6c-2.7-0.7-5.5,0.5-7,2.9L829.8,506.5z"/>
			<path class="st7" d="M745,547.9v7.7c0,1.1-0.9,2-2,2h-7.7c-1.1,0-2,0.9-2,2v7.7c0,1.1-0.9,2-2,2h-7.7c-1.1,0-2-0.9-2-2v-7.7
				c0-1.1-0.9-2-2-2h-7.7c-1.1,0-2-0.9-2-2v-7.7c0-1.1,0.9-2,2-2h7.7c1.1,0,2-0.9,2-2v-7.7c0-1.1,0.9-2,2-2h7.7c1.1,0,2,0.9,2,2v7.7
				c0,1.1,0.9,2,2,2h7.7C744.1,545.9,745,546.8,745,547.9z"/>
			<g>
				<circle class="st7" cx="832.4" cy="550.4" r="7.4"/>
				<circle class="st7" cx="850.7" cy="539.6" r="7.4"/>
				<circle class="st7" cx="847.3" cy="565.2" r="7.4"/>
				<circle class="st7" cx="865.6" cy="554.4" r="7.4"/>
			</g>
			<g>
				<path class="st7" d="M848.3,599.3c-2.6-0.4-5.1-0.9-7.7-1.2c-2.6-0.3-5.2-0.7-7.8-1c-5.2-0.5-10.4-0.9-15.6-1.2
					c-5.2-0.3-10.4-0.5-15.6-0.6c-5.2-0.1-10.4-0.2-15.7-0.1c-2.6,0-5.2,0-7.8,0.1c-2.6,0-5.2,0.1-7.8,0.1
					c-5.2,0.1-10.4,0.3-15.7,0.6c-2.6,0.2-5.2,0.3-7.8,0.6c-2.6,0.2-5.2,0.5-7.8,0.9l-3.9,0.5l-3.9,0.7c-2.5,0.4-5.3,1-8,1
					c-2.8,0.1-5.5-0.2-8.2-0.9c-2.7-0.6-5.3-1.6-7.7-2.9c-4.9-2.6-9.1-6.3-12.4-10.7c-3.3-4.4-5.6-9.5-7-14.8
					c-0.7-2.7-1.1-5.4-1.3-8.2c0-0.7-0.1-1.4-0.1-2.1l0-2.1c0-1.4,0.1-2.7,0.2-4.1c0.8-11,5.7-21.7,13.1-30
					c3.8-4.1,8.3-7.6,13.2-10.3c4.9-2.5,9.8-4.7,14.9-6.4c10.2-3.6,20.7-5.9,31.2-7.4c10.6-1.6,21.2-2.1,31.9-2.1
					c10.7,0.1,21.3,0.8,31.9,2.5c10.5,1.7,21,4.2,31.1,8.1c2.5,1,5,1.9,7.5,3.2c2.5,1.3,4.9,2.7,7.2,4.4c4.5,3.3,8.5,7.3,11.8,11.9
					c3.2,4.6,5.8,9.6,7.4,14.9c1.6,5.3,2.3,10.9,2.2,16.4c0,2.7-0.3,5.5-0.9,8.2c-0.5,2.7-1.3,5.3-2.3,7.9c-2,5.1-4.9,9.9-8.7,13.8
					c-3.8,4-8.4,7.1-13.6,8.9C859.5,600,853.8,600.4,848.3,599.3z M849,596c4.9,1.1,10,0.8,14.7-0.8c4.8-1.5,9.1-4.4,12.6-8
					c3.4-3.7,6.1-8.1,7.7-12.9c1.6-4.8,2.1-9.9,1.7-14.9c-0.3-5-1.5-9.9-3.3-14.6c-1.7-4.6-4.1-9-7.1-13c-0.7-1-1.6-1.9-2.3-2.9
					c-0.8-0.9-1.7-1.8-2.5-2.7c-0.9-0.8-1.8-1.7-2.7-2.5c-1-0.7-1.9-1.6-2.9-2.3c-2-1.4-4.1-2.7-6.3-3.9c-2.1-1.1-4.6-2-6.9-3
					c-9.5-3.7-19.6-6.2-29.8-7.9c-10.2-1.7-20.6-2.5-30.9-2.6c-10.4-0.1-20.8,0.4-31,1.9c-10.2,1.5-20.4,3.7-30.1,7
					c-4.8,1.7-9.6,3.8-14,6.1c-4.3,2.4-8.2,5.5-11.6,9.1c-6.7,7.2-11.3,16.5-12.8,26.4c-0.2,1.2-0.4,2.5-0.4,3.7l-0.1,1.9
					c0,0.6,0,1.2,0,1.9c0,2.5,0.3,5,0.8,7.5c1,4.9,3,9.6,5.9,13.8c2.9,4.1,6.6,7.7,11,10c2.2,1.2,4.6,2.1,7,2.7
					c2.4,0.6,4.9,0.8,7.4,0.7c2.5-0.1,4.9-0.6,7.6-1.1l3.9-0.8l3.9-0.7c2.6-0.5,5.2-0.9,7.8-1.3c2.6-0.4,5.2-0.7,7.9-1.1
					c10.5-1.3,21.1-2.1,31.7-2.2C807.1,589.3,828.3,591.7,849,596z"/>
				<path class="st7" d="M697.2,642.6c-0.2,0-0.4,0-0.6,0c-6.1-0.2-12.2-3.7-18.5-10.6c-22.6-24.6,9.4-85.3,10.8-87.9l4.6,2.5
					c-0.3,0.6-31.6,60-11.6,81.9c5.3,5.8,10.2,8.7,14.9,8.9c7.8,0.3,15.3-6.8,24.8-15.8c14.5-13.7,32.6-30.8,62.5-31.7l0.2,5.3
					c-27.9,0.8-45.2,17.2-59,30.3C715.4,634.6,706.9,642.6,697.2,642.6z"/>
				<path class="st7" d="M879.6,642.6c-9.7,0-18.2-8-28-17.3c-13.9-13.1-31.1-29.5-59-30.3l0.2-5.3c29.9,0.9,48,18,62.5,31.7
					c9.5,9,17.1,16.1,24.8,15.8c4.7-0.2,9.5-3.1,14.9-8.9c20.1-21.9-11.2-81.3-11.6-81.9l4.6-2.5c1.4,2.6,33.4,63.2,10.8,87.9
					c-6.3,6.9-12.4,10.4-18.5,10.6C880,642.6,879.8,642.6,879.6,642.6z"/>
			</g>
			<g>
				<circle class="st7" cx="747.9" cy="595.1" r="16.3"/>
				<path class="st7" d="M747.9,614.1c-10.4,0-18.9-8.5-18.9-18.9s8.5-18.9,18.9-18.9s18.9,8.5,18.9,18.9S758.3,614.1,747.9,614.1z
					 M747.9,581.4c-7.5,0-13.7,6.1-13.7,13.7s6.1,13.7,13.7,13.7c7.5,0,13.7-6.1,13.7-13.7S755.4,581.4,747.9,581.4z"/>
			</g>
			<path class="st7" d="M803.1,557.6h-29.5c-2.2,0-4-1.8-4-4v-7.9c0-2.2,1.8-4,4-4h29.5c2.2,0,4,1.8,4,4v7.9
				C807.2,555.8,805.3,557.6,803.1,557.6z"/>
			<g>
				<circle class="st7" cx="828" cy="595.1" r="16.3"/>
				<path class="st7" d="M828.1,614.1c-10.4,0-18.9-8.5-18.9-18.9s8.5-18.9,18.9-18.9s18.9,8.5,18.9,18.9S838.5,614.1,828.1,614.1z
					 M828.1,581.4c-7.5,0-13.7,6.1-13.7,13.7s6.1,13.7,13.7,13.7c7.5,0,13.7-6.1,13.7-13.7S835.6,581.4,828.1,581.4z"/>
			</g>
		</g>
		<g>
			<path class="st5" d="M888.8,545.7c-0.2-0.9-0.5-1.9-0.8-2.8c-1.6-5.3-4.2-10.4-7.4-14.9c-3.2-4.6-7.2-8.6-11.8-11.9
				c-2.3-1.6-4.7-3.1-7.2-4.4c-2.5-1.3-5-2.2-7.5-3.2c-10.1-3.9-20.6-6.4-31.1-8.1c-10.6-1.7-21.2-2.4-31.9-2.5
				c-10.7,0-21.3,0.5-31.9,2.1c-10.6,1.5-21.1,3.8-31.2,7.4c-5.1,1.7-10,3.9-14.9,6.4c-4.9,2.7-9.4,6.2-13.2,10.3
				c-5.4,5.9-9.4,13.1-11.5,20.8c-3.8,7.4-31.9,63.7-10.4,87.2c6.3,6.9,12.4,10.4,18.5,10.6c0.2,0,0.4,0,0.6,0c9.7,0,18.2-8,28-17.3
				c13.2-12.5,29.5-27.9,55.2-30.1c1.9,0,3.7,0,5.6,0c3.6,0,7.1,0,10.7,0.1c25.5,2.2,41.7,17.6,54.9,30.1c9.8,9.3,18.3,17.3,28,17.3
				c0.2,0,0.4,0,0.6,0c6.1-0.2,12.2-3.7,18.5-10.6C919.5,609.3,894,556,888.8,545.7z"/>
			<path class="st2" d="M744.8,500.4c-1.4-2.4-4.3-3.5-7-2.9c-9.8,2.4-18.8,5.6-26.6,9.6c-4.4,2.2-8.4,5-12,8.2
				c-2.4,2.2-2.8,5.8-0.9,8.4l3.5,4.9c3.8-4.7,8.7-8.7,14.4-11.6c9.1-4.6,20.2-8.1,32.3-10.5L744.8,500.4z"/>
			<path class="st2" d="M829.8,506.5c12.1,2.4,23.1,5.9,32.3,10.5c5.7,2.9,10.5,6.8,14.4,11.6l3.5-4.9c1.9-2.6,1.5-6.2-0.9-8.4
				c-3.6-3.2-7.6-6-12-8.2c-7.8-4-16.9-7.2-26.6-9.6c-2.7-0.7-5.5,0.5-7,2.9L829.8,506.5z"/>
			<path class="st2" d="M745,547.9v7.7c0,1.1-0.9,2-2,2h-7.7c-1.1,0-2,0.9-2,2v7.7c0,1.1-0.9,2-2,2h-7.7c-1.1,0-2-0.9-2-2v-7.7
				c0-1.1-0.9-2-2-2h-7.7c-1.1,0-2-0.9-2-2v-7.7c0-1.1,0.9-2,2-2h7.7c1.1,0,2-0.9,2-2v-7.7c0-1.1,0.9-2,2-2h7.7c1.1,0,2,0.9,2,2v7.7
				c0,1.1,0.9,2,2,2h7.7C744.1,545.9,745,546.8,745,547.9z"/>
			<g>
				<circle class="st2" cx="832.4" cy="550.4" r="7.4"/>
				<circle class="st2" cx="850.7" cy="539.6" r="7.4"/>
				<circle class="st2" cx="847.3" cy="565.2" r="7.4"/>
				<circle class="st2" cx="865.6" cy="554.4" r="7.4"/>
			</g>
			<g>
				<path class="st0" d="M848.3,599.3c-2.6-0.4-5.1-0.9-7.7-1.2c-2.6-0.3-5.2-0.7-7.8-1c-5.2-0.5-10.4-0.9-15.6-1.2
					c-5.2-0.3-10.4-0.5-15.6-0.6c-5.2-0.1-10.4-0.2-15.7-0.1c-2.6,0-5.2,0-7.8,0.1c-2.6,0-5.2,0.1-7.8,0.1
					c-5.2,0.1-10.4,0.3-15.7,0.6c-2.6,0.2-5.2,0.3-7.8,0.6c-2.6,0.2-5.2,0.5-7.8,0.9l-3.9,0.5l-3.9,0.7c-2.5,0.4-5.3,1-8,1
					c-2.8,0.1-5.5-0.2-8.2-0.9c-2.7-0.6-5.3-1.6-7.7-2.9c-4.9-2.6-9.1-6.3-12.4-10.7c-3.3-4.4-5.6-9.5-7-14.8
					c-0.7-2.7-1.1-5.4-1.3-8.2c0-0.7-0.1-1.4-0.1-2.1l0-2.1c0-1.4,0.1-2.7,0.2-4.1c0.8-11,5.7-21.7,13.1-30
					c3.8-4.1,8.3-7.6,13.2-10.3c4.9-2.5,9.8-4.7,14.9-6.4c10.2-3.6,20.7-5.9,31.2-7.4c10.6-1.6,21.2-2.1,31.9-2.1
					c10.7,0.1,21.3,0.8,31.9,2.5c10.5,1.7,21,4.2,31.1,8.1c2.5,1,5,1.9,7.5,3.2c2.5,1.3,4.9,2.7,7.2,4.4c4.5,3.3,8.5,7.3,11.8,11.9
					c3.2,4.6,5.8,9.6,7.4,14.9c1.6,5.3,2.3,10.9,2.2,16.4c0,2.7-0.3,5.5-0.9,8.2c-0.5,2.7-1.3,5.3-2.3,7.9c-2,5.1-4.9,9.9-8.7,13.8
					c-3.8,4-8.4,7.1-13.6,8.9C859.5,600,853.8,600.4,848.3,599.3z M849,596c4.9,1.1,10,0.8,14.7-0.8c4.8-1.5,9.1-4.4,12.6-8
					c3.4-3.7,6.1-8.1,7.7-12.9c1.6-4.8,2.1-9.9,1.7-14.9c-0.3-5-1.5-9.9-3.3-14.6c-1.7-4.6-4.1-9-7.1-13c-0.7-1-1.6-1.9-2.3-2.9
					c-0.8-0.9-1.7-1.8-2.5-2.7c-0.9-0.8-1.8-1.7-2.7-2.5c-1-0.7-1.9-1.6-2.9-2.3c-2-1.4-4.1-2.7-6.3-3.9c-2.1-1.1-4.6-2-6.9-3
					c-9.5-3.7-19.6-6.2-29.8-7.9c-10.2-1.7-20.6-2.5-30.9-2.6c-10.4-0.1-20.8,0.4-31,1.9c-10.2,1.5-20.4,3.7-30.1,7
					c-4.8,1.7-9.6,3.8-14,6.1c-4.3,2.4-8.2,5.5-11.6,9.1c-6.7,7.2-11.3,16.5-12.8,26.4c-0.2,1.2-0.4,2.5-0.4,3.7l-0.1,1.9
					c0,0.6,0,1.2,0,1.9c0,2.5,0.3,5,0.8,7.5c1,4.9,3,9.6,5.9,13.8c2.9,4.1,6.6,7.7,11,10c2.2,1.2,4.6,2.1,7,2.7
					c2.4,0.6,4.9,0.8,7.4,0.7c2.5-0.1,4.9-0.6,7.6-1.1l3.9-0.8l3.9-0.7c2.6-0.5,5.2-0.9,7.8-1.3c2.6-0.4,5.2-0.7,7.9-1.1
					c10.5-1.3,21.1-2.1,31.7-2.2C807.1,589.3,828.3,591.7,849,596z"/>
				<path class="st0" d="M697.2,642.6c-0.2,0-0.4,0-0.6,0c-6.1-0.2-12.2-3.7-18.5-10.6c-22.6-24.6,9.4-85.3,10.8-87.9l4.6,2.5
					c-0.3,0.6-31.6,60-11.6,81.9c5.3,5.8,10.2,8.7,14.9,8.9c7.8,0.3,15.3-6.8,24.8-15.8c14.5-13.7,32.6-30.8,62.5-31.7l0.2,5.3
					c-27.9,0.8-45.2,17.2-59,30.3C715.4,634.6,706.9,642.6,697.2,642.6z"/>
				<path class="st0" d="M879.6,642.6c-9.7,0-18.2-8-28-17.3c-13.9-13.1-31.1-29.5-59-30.3l0.2-5.3c29.9,0.9,48,18,62.5,31.7
					c9.5,9,17.1,16.1,24.8,15.8c4.7-0.2,9.5-3.1,14.9-8.9c20.1-21.9-11.2-81.3-11.6-81.9l4.6-2.5c1.4,2.6,33.4,63.2,10.8,87.9
					c-6.3,6.9-12.4,10.4-18.5,10.6C880,642.6,879.8,642.6,879.6,642.6z"/>
			</g>
			<g>
				<circle class="st2" cx="747.9" cy="595.1" r="16.3"/>
				<path class="st0" d="M747.9,614.1c-10.4,0-18.9-8.5-18.9-18.9s8.5-18.9,18.9-18.9s18.9,8.5,18.9,18.9S758.3,614.1,747.9,614.1z
					 M747.9,581.4c-7.5,0-13.7,6.1-13.7,13.7s6.1,13.7,13.7,13.7c7.5,0,13.7-6.1,13.7-13.7S755.4,581.4,747.9,581.4z"/>
			</g>
			<path class="st2" d="M803.1,557.6h-29.5c-2.2,0-4-1.8-4-4v-7.9c0-2.2,1.8-4,4-4h29.5c2.2,0,4,1.8,4,4v7.9
				C807.2,555.8,805.3,557.6,803.1,557.6z"/>
			<g>
				<circle class="st2" cx="828" cy="595.1" r="16.3"/>
				<path class="st0" d="M828.1,614.1c-10.4,0-18.9-8.5-18.9-18.9s8.5-18.9,18.9-18.9s18.9,8.5,18.9,18.9S838.5,614.1,828.1,614.1z
					 M828.1,581.4c-7.5,0-13.7,6.1-13.7,13.7s6.1,13.7,13.7,13.7c7.5,0,13.7-6.1,13.7-13.7S835.6,581.4,828.1,581.4z"/>
			</g>
		</g>
	</g>
</g>
<g>
	<path class="st2" d="M500,633.4c-2.8,0-5.1-2.2-5.2-5.1c-0.1-2.9,2.2-5.3,5.1-5.4c0.7,0,61.1-3,105.6-61.1c1.8-2.3,5.1-2.7,7.4-1
		c2.3,1.8,2.7,5.1,1,7.4c-24.9,32.5-54.3,48.5-74.6,56.1c-22.1,8.4-38.3,9-39,9C500.2,633.4,500.1,633.4,500,633.4z"/>
	<g>
		<polygon class="st2" points="623.4,581.5 626,539.7 588.5,558.3 		"/>
	</g>
</g>
<g>
	<path class="st2" d="M609.6,210.2c-1.6,0-3.1-0.7-4.2-2.1c-44.6-58.3-105-61-105.6-61.1c-2.9-0.1-5.2-2.5-5.1-5.4
		c0.1-2.9,2.5-5.1,5.4-5.1c0.7,0,16.9,0.7,39,9c20.3,7.7,49.7,23.7,74.6,56.1c1.8,2.3,1.3,5.6-1,7.4
		C611.9,209.9,610.7,210.2,609.6,210.2z"/>
	<g>
		<polygon class="st2" points="588.5,211.7 626,230.3 623.4,188.5 		"/>
	</g>
</g>
<g>
	<path class="st2" d="M567.8,400.4H498c-2.9,0-5.2-2.4-5.2-5.2s2.4-5.2,5.2-5.2h69.7c2.9,0,5.2,2.4,5.2,5.2S570.7,400.4,567.8,400.4
		z"/>
	<g>
		<polygon class="st2" points="561.6,416.1 597.9,395.2 561.6,374.2 		"/>
	</g>
</g>
</svg>
