<?xml version="1.0" encoding="utf-8"?>
<!-- Generator: Adobe Illustrator 24.1.1, SVG Export Plug-In . SVG Version: 6.00 Build 0)  -->
<svg version="1.1" id="Layer_1" xmlns="http://www.w3.org/2000/svg" xmlns:xlink="http://www.w3.org/1999/xlink" x="0px" y="0px"
	 viewBox="0 0 658 316.7" style="enable-background:new 0 0 658 316.7;" xml:space="preserve">
<style type="text/css">
	.st0{fill:#10103B;}
	.st1{fill:url(#SVGID_1_);}
	.st2{fill:url(#SVGID_2_);}
	.st3{opacity:5.000000e-02;}
	.st4{fill:#00AFCA;}
	.st5{fill:url(#SVGID_3_);}
	.st6{fill:url(#SVGID_4_);}
	.st7{opacity:0.1;}
	.st8{fill:#FFFFFF;}
	.st9{fill:url(#SVGID_5_);}
	.st10{fill:url(#SVGID_6_);}
	.st11{fill:#F58B8D;}
	.st12{fill:url(#SVGID_7_);}
	.st13{fill:#8BCC9C;}
	.st14{fill:url(#SVGID_8_);}
</style>
<g>
	<path class="st0" d="M0,262.6v-23h6.2v23H0z"/>
	<path class="st0" d="M38.5,252v10.6h-6.2v-10c0-0.6-0.1-1.1-0.3-1.5c-0.2-0.3-0.6-0.5-1.3-0.5c-0.3,0-0.8,0.1-1.4,0.3
		s-1.2,0.4-1.7,0.6v0.4v10.6h-6.2v-10c0-0.6-0.1-1.1-0.3-1.5c-0.2-0.3-0.6-0.5-1.3-0.5c-0.3,0-0.8,0.1-1.4,0.3
		c-0.6,0.2-1.2,0.4-1.7,0.6v11h-6.2v-16.4h3.7l1.1,1.7c2.4-1.5,4.6-2.2,6.5-2.2c2.2,0,3.7,0.7,4.7,2c2.2-1.4,4.3-2,6.2-2
		C36.5,245.6,38.5,247.8,38.5,252z"/>
	<path class="st0" d="M56.6,247.8c1.5,1.4,2.3,3.6,2.3,6.4c0,2.9-0.8,5-2.4,6.5s-3.7,2.3-6.3,2.3c-0.8,0-1.5-0.1-2.2-0.3v7l-6.2,0.3
		v-23.8H45l0.9,0.9c0.7-0.5,1.4-0.9,2.2-1.1c0.8-0.3,1.6-0.4,2.4-0.4C53,245.6,55.1,246.3,56.6,247.8z M51.8,257.1
		c0.5-0.7,0.8-1.7,0.8-2.9c0-1.2-0.3-2.2-0.8-2.9c-0.5-0.7-1.3-1-2.2-1c-0.5,0-1,0.2-1.5,0.5v6.9c0.7,0.3,1.2,0.4,1.8,0.4
		C50.6,258.2,51.3,257.9,51.8,257.1z"/>
	<path class="st0" d="M61.6,262.6v-23.5l6.2-0.4v23.9H61.6z"/>
	<path class="st0" d="M87.2,255.9h-10c0.2,0.7,0.6,1.2,1.3,1.6c0.6,0.4,1.4,0.6,2.5,0.6c1.6,0,3.1-0.4,4.5-1.1l1.7,4.2
		c-0.7,0.5-1.7,0.9-2.9,1.3c-1.3,0.3-2.6,0.5-3.9,0.5c-1.9,0-3.6-0.3-5.1-1s-2.6-1.6-3.5-2.9c-0.8-1.3-1.3-2.8-1.3-4.7
		c0-1.8,0.4-3.3,1.2-4.7c0.8-1.3,1.8-2.4,3.2-3.1c1.3-0.7,2.8-1.1,4.5-1.1c1.7,0,3.1,0.4,4.3,1.2c1.2,0.8,2.1,1.8,2.7,3.1
		c0.6,1.3,0.9,2.7,0.9,4.3V255.9z M77,252.9h4.3c0-0.6-0.2-1.1-0.5-1.6c-0.4-0.5-0.9-0.7-1.6-0.7c-0.6,0-1.1,0.2-1.5,0.7
		S77,252.3,77,252.9z"/>
	<path class="st0" d="M117.5,252v10.6h-6.2v-10c0-0.6-0.1-1.1-0.3-1.5c-0.2-0.3-0.6-0.5-1.3-0.5c-0.3,0-0.8,0.1-1.4,0.3
		s-1.2,0.4-1.7,0.6v0.4v10.6h-6.2v-10c0-0.6-0.1-1.1-0.3-1.5c-0.2-0.3-0.6-0.5-1.3-0.5c-0.3,0-0.8,0.1-1.4,0.3
		c-0.6,0.2-1.2,0.4-1.7,0.6v11h-6.2v-16.4h3.7l1.1,1.7c2.4-1.5,4.6-2.2,6.5-2.2c2.2,0,3.7,0.7,4.7,2c2.2-1.4,4.3-2,6.2-2
		C115.5,245.6,117.5,247.8,117.5,252z"/>
	<path class="st0" d="M136.4,255.9h-10c0.2,0.7,0.6,1.2,1.3,1.6c0.6,0.4,1.4,0.6,2.5,0.6c1.6,0,3.1-0.4,4.5-1.1l1.7,4.2
		c-0.7,0.5-1.7,0.9-2.9,1.3c-1.3,0.3-2.6,0.5-3.9,0.5c-1.9,0-3.6-0.3-5.1-1s-2.6-1.6-3.5-2.9c-0.8-1.3-1.3-2.8-1.3-4.7
		c0-1.8,0.4-3.3,1.2-4.7c0.8-1.3,1.8-2.4,3.2-3.1c1.3-0.7,2.8-1.1,4.5-1.1c1.7,0,3.1,0.4,4.3,1.2c1.2,0.8,2.1,1.8,2.7,3.1
		c0.6,1.3,0.9,2.7,0.9,4.3V255.9z M126.2,252.9h4.3c0-0.6-0.2-1.1-0.5-1.6c-0.4-0.5-0.9-0.7-1.6-0.7c-0.6,0-1.1,0.2-1.5,0.7
		S126.2,252.3,126.2,252.9z"/>
	<path class="st0" d="M144.9,262.6h-6.2v-16.4h3.7l1.1,1.7c2.4-1.5,4.6-2.2,6.7-2.2c2,0,3.5,0.6,4.5,1.7c1,1.2,1.5,2.7,1.5,4.6v10.6
		H150v-10c0-0.6-0.1-1-0.4-1.4s-0.7-0.6-1.4-0.6c-0.4,0-0.9,0.1-1.5,0.3c-0.7,0.2-1.3,0.4-1.8,0.7V262.6z"/>
	<path class="st0" d="M171,246.9l0.6,4.8h-4.9v4.1c0,0.7,0.2,1.2,0.5,1.6s0.8,0.6,1.4,0.6c0.8,0,1.6-0.2,2.4-0.6l1.8,4.2
		c-0.4,0.4-1.1,0.7-2,1c-0.9,0.3-1.8,0.5-2.5,0.5c-1.4,0-2.6-0.2-3.8-0.7c-1.2-0.5-2.1-1.2-2.8-2.2c-0.7-1-1.1-2.2-1.1-3.6v-4.7H158
		v-4.8h2.5v-4.4l6.2-0.8v5.3H171z"/>
	<path class="st0" d="M176.4,251.6l-1.6-4.4c0.9-0.4,2.1-0.8,3.4-1.1c1.3-0.3,2.6-0.5,3.9-0.5c2.2,0,3.9,0.6,5,1.8
		c1.2,1.2,1.8,2.9,1.8,5v10.2h-3l-1.8-1.7c-1.1,1.4-2.3,2.1-3.7,2.1c-2,0-3.6-0.5-4.6-1.5c-1-1-1.6-2.4-1.6-4.1
		c0-3.2,2.1-4.8,6.4-4.8h2c-0.1-0.6-0.3-1.1-0.7-1.4c-0.4-0.3-0.9-0.5-1.4-0.5c-0.5,0-1.2,0.1-2,0.3S177,251.3,176.4,251.6z
		 M179.4,257.2c0,0.3,0.1,0.6,0.3,0.8c0.2,0.2,0.5,0.3,0.8,0.3c0.7,0,1.4-0.3,2.2-0.9v-1.6h-1.9c-0.4,0-0.7,0.1-1,0.4
		C179.5,256.5,179.4,256.8,179.4,257.2z"/>
	<path class="st0" d="M203.7,246.9l0.6,4.8h-4.9v4.1c0,0.7,0.2,1.2,0.5,1.6s0.8,0.6,1.4,0.6c0.8,0,1.6-0.2,2.4-0.6l1.8,4.2
		c-0.4,0.4-1.1,0.7-2,1c-0.9,0.3-1.8,0.5-2.5,0.5c-1.4,0-2.6-0.2-3.8-0.7c-1.2-0.5-2.1-1.2-2.8-2.2c-0.7-1-1.1-2.2-1.1-3.6v-4.7
		h-2.5v-4.8h2.5v-4.4l6.2-0.8v5.3H203.7z"/>
	<path class="st0" d="M210.5,243.9c-0.9,0-1.7-0.3-2.3-1s-1-1.4-1-2.3c0-0.9,0.3-1.7,1-2.4c0.7-0.7,1.4-1,2.3-1c0.9,0,1.7,0.3,2.4,1
		c0.7,0.7,1,1.5,1,2.4c0,0.9-0.3,1.7-1,2.3S211.4,243.9,210.5,243.9z M207.5,262.6v-16.4h6.2v16.4H207.5z"/>
	<path class="st0" d="M233.4,259.1c-0.8,1.3-2,2.3-3.4,2.9s-3,1-4.8,1c-2.8,0-5-0.7-6.6-2.2c-1.7-1.5-2.5-3.6-2.5-6.4
		c0-1.8,0.4-3.3,1.2-4.7c0.8-1.3,1.9-2.3,3.3-3c1.4-0.7,3-1,4.7-1c1.8,0,3.4,0.3,4.8,1c1.4,0.7,2.5,1.7,3.3,3
		c0.8,1.3,1.2,2.9,1.2,4.8C234.6,256.2,234.2,257.8,233.4,259.1z M227.5,257.1c0.5-0.6,0.8-1.5,0.8-2.6c0-1.1-0.3-2.1-0.8-2.8
		c-0.5-0.7-1.2-1.1-2.1-1.1c-0.9,0-1.7,0.3-2.2,1c-0.5,0.7-0.8,1.6-0.8,2.7c0,1.1,0.2,2,0.7,2.7s1.2,1,2.1,1
		C226.2,258,227,257.7,227.5,257.1z"/>
	<path class="st0" d="M243.1,262.6H237v-16.4h3.7l1.1,1.7c2.4-1.5,4.6-2.2,6.7-2.2c2,0,3.5,0.6,4.5,1.7c1,1.2,1.5,2.7,1.5,4.6v10.6
		h-6.2v-10c0-0.6-0.1-1-0.4-1.4s-0.7-0.6-1.4-0.6c-0.4,0-0.9,0.1-1.5,0.3c-0.7,0.2-1.3,0.4-1.8,0.7V262.6z"/>
</g>
<linearGradient id="SVGID_1_" gradientUnits="userSpaceOnUse" x1="509.1396" y1="151.9329" x2="509.1396" y2="374.7196">
	<stop  offset="0" style="stop-color:#555D7D"/>
	<stop  offset="0.3247" style="stop-color:#3D4265"/>
	<stop  offset="1" style="stop-color:#01002A"/>
</linearGradient>
<path class="st1" d="M652.5,251.6l-137.3-45.1c-3.9-1.4-8.2-1.4-12.1,0l-137.4,45.1h-5.4v10.1h0c0,2.6,1.5,5.3,4.5,6.3l132.4,46.7
	c7.7,2.7,16.1,2.7,23.9,0L653.5,268c3-1.1,4.5-3.7,4.5-6.4h0v-10.1H652.5z"/>
<linearGradient id="SVGID_2_" gradientUnits="userSpaceOnUse" x1="509.1396" y1="230.6388" x2="509.1396" y2="457.3369">
	<stop  offset="0" style="stop-color:#10103B"/>
	<stop  offset="8.972001e-02" style="stop-color:#0D2E56"/>
	<stop  offset="0.2251" style="stop-color:#09567A"/>
	<stop  offset="0.3653" style="stop-color:#067697"/>
	<stop  offset="0.5094" style="stop-color:#038FAD"/>
	<stop  offset="0.6589" style="stop-color:#01A1BD"/>
	<stop  offset="0.8174" style="stop-color:#00ACC7"/>
	<stop  offset="1" style="stop-color:#00AFCA"/>
</linearGradient>
<path class="st2" d="M497.2,304.5l-132.4-46.7c-6.1-2.1-6.1-10.7,0-12.8l138.3-48.7c3.9-1.4,8.2-1.4,12.1,0l138.3,48.7
	c6.1,2.1,6.1,10.7,0,12.8l-132.4,46.6C513.3,307.2,504.9,307.2,497.2,304.5z"/>
<g class="st3">
	<path class="st4" d="M656.9,247.1c-0.2-0.3-0.4-0.6-0.7-0.9l-11.7,4.1l-17.7-6.2l12.8-4.5L638,239l-12.8,4.5l-17.7-6.3l12.8-4.5
		l-1.6-0.6l-12.8,4.5l-17.8-6.3l12.8-4.5l-1.6-0.6l-12.9,4.5l-17.7-6.2l12.9-4.5l-1.6-0.6l-12.9,4.5l-17.8-6.2l12.9-4.5l-1.6-0.6
		l-12.8,4.5L530,210l12.9-4.5l-1.6-0.6l-12.9,4.5l-17.7-6.2l12.9-4.5l-1.6-0.6l-12.9,4.5l-12.7-4.5l-1.6,0.6l12.7,4.5l-17.7,6.2
		l-12.7-4.5l-1.6,0.6L488,210l-17.7,6.3l-12.7-4.5l-1.6,0.6l12.7,4.5l-17.8,6.2l-12.7-4.5l-1.6,0.6l12.7,4.5l-17.7,6.2l-12.7-4.5
		l-1.6,0.6l12.7,4.5l-17.8,6.3l-12.7-4.5l-1.6,0.6l12.7,4.5l-17.8,6.3l-12.7-4.5l-1.6,0.6l12.7,4.5l-17.7,6.2l-11.5-4
		c-0.3,0.3-0.5,0.6-0.7,0.9l10.5,3.7l-10.5,3.7c0.2,0.3,0.4,0.6,0.7,0.9l11.4-4l17.7,6.2l-12.6,4.4l1.6,0.6l12.6-4.4l17.8,6.3
		L398,269l1.6,0.6l12.6-4.4l17.8,6.2l-12.6,4.4l1.6,0.6l12.6-4.4l17.7,6.2l-12.6,4.4l1.6,0.6l12.6-4.4l17.8,6.3l-12.6,4.4l1.6,0.6
		l12.6-4.4l17.7,6.3l-12.6,4.4l1.6,0.6l12.6-4.4l17.7,6.2l-12.6,4.4l1.6,0.6l12.6-4.4l12.8,4.5l1.6-0.6l-12.8-4.5l17.7-6.2l12.8,4.5
		l1.6-0.6l-12.8-4.5l17.8-6.3l12.8,4.5l1.6-0.6l-12.8-4.5l17.8-6.3l12.8,4.5l1.6-0.6l-12.8-4.5l17.7-6.2l12.8,4.5l1.6-0.6l-12.8-4.5
		l17.8-6.2l12.8,4.5l1.6-0.6l-12.8-4.5l17.7-6.3l12.8,4.5l1.6-0.6l-12.8-4.5l17.7-6.2l11.7,4.1c0.3-0.3,0.5-0.6,0.7-0.9l-10.8-3.8
		L656.9,247.1z M623.5,244.1l-17.7,6.2l-17.8-6.2l17.8-6.3L623.5,244.1z M510.6,244.1l17.7-6.3l17.8,6.3l-17.8,6.2L510.6,244.1z
		 M526.8,250.9l-17.8,6.3l-17.8-6.3l17.8-6.2L526.8,250.9z M509,243.5l-17.8-6.3L509,231l17.8,6.2L509,243.5z M507.4,244.1
		l-17.7,6.2l-17.7-6.2l17.7-6.3L507.4,244.1z M488,250.9l-17.7,6.3l-17.7-6.3l17.7-6.2L488,250.9z M489.6,251.5l17.7,6.2l-17.7,6.3
		l-17.7-6.3L489.6,251.5z M509,258.3l17.8,6.3l-17.8,6.2l-17.8-6.2L509,258.3z M510.6,257.7l17.7-6.2l17.8,6.2l-17.8,6.3
		L510.6,257.7z M530,250.9l17.8-6.2l17.7,6.2l-17.7,6.3L530,250.9z M549.3,244.1l17.8-6.3l17.7,6.3l-17.7,6.2L549.3,244.1z
		 M547.7,243.5l-17.8-6.3l17.8-6.2l17.7,6.2L547.7,243.5z M528.4,236.7l-17.7-6.3l17.7-6.2l17.8,6.2L528.4,236.7z M509,229.9
		l-17.8-6.2l17.8-6.3l17.8,6.3L509,229.9z M507.4,230.5l-17.7,6.3l-17.7-6.3l17.7-6.2L507.4,230.5z M488,237.3l-17.7,6.3l-17.7-6.3
		l17.7-6.2L488,237.3z M468.7,244.1l-17.8,6.2l-17.7-6.2l17.7-6.3L468.7,244.1z M449.3,250.9l-17.7,6.3l-17.8-6.3l17.8-6.2
		L449.3,250.9z M450.9,251.5l17.8,6.2l-17.8,6.3l-17.7-6.3L450.9,251.5z M470.3,258.3l17.7,6.3l-17.7,6.2l-17.7-6.2L470.3,258.3z
		 M489.6,265.1l17.7,6.2l-17.7,6.2l-17.7-6.2L489.6,265.1z M509,271.9l17.8,6.2l-17.8,6.3l-17.8-6.3L509,271.9z M510.6,271.4
		l17.7-6.2l17.8,6.2l-17.8,6.2L510.6,271.4z M530,264.6l17.8-6.3l17.7,6.3l-17.7,6.2L530,264.6z M549.3,257.7l17.8-6.2l17.7,6.2
		l-17.7,6.3L549.3,257.7z M568.7,250.9l17.7-6.2l17.8,6.2l-17.8,6.3L568.7,250.9z M604.2,237.3l-17.8,6.3l-17.7-6.3l17.7-6.2
		L604.2,237.3z M584.8,230.5l-17.7,6.3l-17.8-6.3l17.8-6.2L584.8,230.5z M565.5,223.7l-17.7,6.2l-17.8-6.2l17.8-6.3L565.5,223.7z
		 M546.1,216.9l-17.8,6.2l-17.7-6.2l17.7-6.3L546.1,216.9z M509,203.8l17.8,6.2l-17.8,6.3l-17.8-6.3L509,203.8z M489.6,210.6
		l17.7,6.3l-17.7,6.2l-17.7-6.2L489.6,210.6z M470.3,217.4l17.7,6.3l-17.7,6.2l-17.7-6.2L470.3,217.4z M450.9,224.2l17.8,6.2
		l-17.8,6.3l-17.7-6.3L450.9,224.2z M431.6,231l17.7,6.2l-17.7,6.3l-17.8-6.3L431.6,231z M412.2,237.9l17.8,6.3l-17.8,6.2l-17.7-6.2
		L412.2,237.9z M375.1,250.9l17.7-6.2l17.8,6.2l-17.8,6.3L375.1,250.9z M394.5,257.7l17.7-6.2l17.8,6.2l-17.8,6.3L394.5,257.7z
		 M413.8,264.6l17.8-6.3l17.7,6.3l-17.7,6.2L413.8,264.6z M433.2,271.4l17.7-6.2l17.8,6.2l-17.8,6.2L433.2,271.4z M452.5,278.2
		l17.7-6.2l17.7,6.2l-17.7,6.3L452.5,278.2z M471.9,285l17.7-6.3l17.7,6.3l-17.7,6.3L471.9,285z M509,298.1l-17.8-6.2l17.8-6.3
		l17.8,6.3L509,298.1z M528.4,291.2l-17.7-6.3l17.7-6.3l17.8,6.3L528.4,291.2z M547.7,284.4l-17.8-6.3l17.8-6.2l17.7,6.2
		L547.7,284.4z M567.1,277.6l-17.8-6.2l17.8-6.2l17.7,6.2L567.1,277.6z M586.4,270.8l-17.7-6.2l17.7-6.3l17.8,6.3L586.4,270.8z
		 M605.8,264l-17.8-6.3l17.8-6.2l17.7,6.2L605.8,264z M625.2,257.2l-17.7-6.3l17.7-6.2l17.8,6.2L625.2,257.2z"/>
</g>
<g>
	<path class="st0" d="M39.3,63.2h-8.7v-23h8c2.7,0,5,0.6,6.8,1.7c1.8,1.1,2.7,2.8,2.7,5c0,0.8-0.2,1.5-0.6,2.2
		c-0.4,0.7-0.9,1.3-1.6,2c0.9,0.7,1.7,1.4,2.3,2.4c0.6,0.9,0.8,1.9,0.8,3c0,2.4-0.9,4.2-2.8,5.3C44.5,62.6,42.1,63.2,39.3,63.2z
		 M38.4,45h-1.7v3.9h1.4c1,0,1.9-0.2,2.6-0.5c0.7-0.3,1-0.7,1-1.3c0-0.7-0.3-1.2-0.9-1.6S39.5,45,38.4,45z M39.4,53.7h-2.6v4.6h2.7
		c1,0,1.8-0.2,2.4-0.6c0.6-0.4,0.9-0.9,0.9-1.6c0-0.8-0.3-1.4-0.9-1.8C41.2,53.9,40.4,53.7,39.4,53.7z"/>
	<path class="st0" d="M62.5,46.8h6.2v16.4h-3L64,61.5c-2.4,1.5-4.6,2.2-6.7,2.2c-2,0-3.5-0.6-4.5-1.7c-1-1.2-1.5-2.7-1.5-4.6V46.8
		h6.2v10c0,0.6,0.1,1,0.4,1.4c0.3,0.4,0.7,0.6,1.4,0.6c0.4,0,0.9-0.1,1.5-0.3c0.7-0.2,1.3-0.4,1.8-0.7V46.8z"/>
	<path class="st0" d="M71.1,61.6l1.7-3.9c0.7,0.3,1.4,0.6,2.4,0.8c0.9,0.2,1.7,0.3,2.3,0.3c0.4,0,0.7-0.1,1-0.2
		c0.3-0.1,0.4-0.3,0.4-0.5c0-0.1-0.2-0.3-0.5-0.5c-0.3-0.2-0.7-0.4-1.2-0.5c-1.7-0.6-3.1-1.3-4.2-2.2c-1.1-0.8-1.6-1.9-1.6-3.3
		c0-1.7,0.6-3.1,1.9-4c1.3-1,3.1-1.5,5.3-1.5c1,0,2,0.1,3.2,0.4c1.2,0.3,2.2,0.7,3,1.4l-1.7,3.9c-0.7-0.3-1.4-0.5-2.1-0.7
		c-0.7-0.2-1.4-0.3-1.9-0.3c-0.5,0-0.9,0.1-1.2,0.2c-0.3,0.1-0.5,0.3-0.5,0.5c0,0.1,0.2,0.3,0.5,0.5c0.3,0.2,0.7,0.4,1.3,0.5
		c1.7,0.6,3.1,1.3,4.1,2.1c1.1,0.8,1.6,1.9,1.6,3.3c0,1.7-0.6,3.1-1.7,4c-1.2,1-2.9,1.4-5.1,1.4c-1,0-2.2-0.2-3.6-0.5
		C73.1,62.7,72,62.2,71.1,61.6z"/>
	<path class="st0" d="M90.4,44.5c-0.9,0-1.7-0.3-2.3-1c-0.7-0.7-1-1.4-1-2.3c0-0.9,0.3-1.7,1-2.4c0.7-0.7,1.4-1,2.3-1
		c0.9,0,1.7,0.3,2.4,1c0.7,0.7,1,1.5,1,2.4c0,0.9-0.3,1.7-1,2.3C92.1,44.2,91.3,44.5,90.4,44.5z M87.3,63.2V46.7h6.2v16.4H87.3z"/>
	<path class="st0" d="M103,63.2h-6.2V46.7h3.7l1.1,1.7c2.4-1.5,4.6-2.2,6.7-2.2c2,0,3.5,0.6,4.5,1.7c1,1.2,1.5,2.7,1.5,4.6v10.6
		h-6.2v-10c0-0.6-0.1-1-0.4-1.4c-0.3-0.4-0.7-0.6-1.4-0.6c-0.4,0-0.9,0.1-1.5,0.3c-0.7,0.2-1.3,0.4-1.8,0.7V63.2z"/>
	<path class="st0" d="M133.2,56.5h-10c0.2,0.7,0.6,1.2,1.3,1.6c0.6,0.4,1.4,0.6,2.5,0.6c1.6,0,3.1-0.4,4.5-1.1l1.7,4.2
		c-0.7,0.5-1.7,0.9-2.9,1.3c-1.3,0.3-2.6,0.5-3.9,0.5c-1.9,0-3.6-0.3-5.1-1c-1.5-0.7-2.6-1.6-3.5-2.9c-0.8-1.3-1.3-2.8-1.3-4.7
		c0-1.8,0.4-3.3,1.2-4.7c0.8-1.3,1.8-2.4,3.2-3.1c1.3-0.7,2.8-1.1,4.5-1.1c1.7,0,3.1,0.4,4.3,1.2c1.2,0.8,2.1,1.8,2.7,3.1
		c0.6,1.3,0.9,2.7,0.9,4.3V56.5z M123,53.4h4.3c0-0.6-0.2-1.1-0.5-1.6c-0.4-0.5-0.9-0.7-1.6-0.7c-0.6,0-1.1,0.2-1.5,0.7
		S123,52.8,123,53.4z"/>
	<path class="st0" d="M134.6,61.6l1.7-3.9c0.7,0.3,1.4,0.6,2.4,0.8c0.9,0.2,1.7,0.3,2.3,0.3c0.4,0,0.7-0.1,1-0.2
		c0.3-0.1,0.4-0.3,0.4-0.5c0-0.1-0.2-0.3-0.5-0.5c-0.3-0.2-0.7-0.4-1.2-0.5c-1.7-0.6-3.1-1.3-4.2-2.2c-1.1-0.8-1.6-1.9-1.6-3.3
		c0-1.7,0.6-3.1,1.9-4c1.3-1,3.1-1.5,5.3-1.5c1,0,2,0.1,3.2,0.4c1.2,0.3,2.2,0.7,3,1.4l-1.7,3.9c-0.7-0.3-1.4-0.5-2.1-0.7
		c-0.7-0.2-1.4-0.3-1.9-0.3c-0.5,0-0.9,0.1-1.2,0.2c-0.3,0.1-0.5,0.3-0.5,0.5c0,0.1,0.2,0.3,0.5,0.5c0.3,0.2,0.7,0.4,1.3,0.5
		c1.7,0.6,3.1,1.3,4.1,2.1c1.1,0.8,1.6,1.9,1.6,3.3c0,1.7-0.6,3.1-1.7,4c-1.2,1-2.9,1.4-5.1,1.4c-1,0-2.2-0.2-3.6-0.5
		C136.6,62.7,135.4,62.2,134.6,61.6z"/>
	<path class="st0" d="M149.9,61.6l1.7-3.9c0.7,0.3,1.4,0.6,2.4,0.8c0.9,0.2,1.7,0.3,2.3,0.3c0.4,0,0.7-0.1,1-0.2
		c0.3-0.1,0.4-0.3,0.4-0.5c0-0.1-0.2-0.3-0.5-0.5c-0.3-0.2-0.7-0.4-1.2-0.5c-1.7-0.6-3.1-1.3-4.2-2.2c-1.1-0.8-1.6-1.9-1.6-3.3
		c0-1.7,0.6-3.1,1.9-4c1.3-1,3.1-1.5,5.3-1.5c1,0,2,0.1,3.2,0.4c1.2,0.3,2.2,0.7,3,1.4l-1.7,3.9c-0.7-0.3-1.4-0.5-2.1-0.7
		c-0.7-0.2-1.4-0.3-1.9-0.3c-0.5,0-0.9,0.1-1.2,0.2c-0.3,0.1-0.5,0.3-0.5,0.5c0,0.1,0.2,0.3,0.5,0.5c0.3,0.2,0.7,0.4,1.3,0.5
		c1.7,0.6,3.1,1.3,4.1,2.1c1.1,0.8,1.6,1.9,1.6,3.3c0,1.7-0.6,3.1-1.7,4c-1.2,1-2.9,1.4-5.1,1.4c-1,0-2.2-0.2-3.6-0.5
		C151.8,62.7,150.7,62.2,149.9,61.6z"/>
	<path class="st0" d="M191,63.2h-16.5v-23h6.2v18.2h9.8L191,63.2z"/>
	<path class="st0" d="M209.4,59.6c-0.8,1.3-2,2.3-3.4,2.9c-1.4,0.7-3,1-4.8,1c-2.8,0-5-0.7-6.6-2.2c-1.7-1.5-2.5-3.6-2.5-6.4
		c0-1.8,0.4-3.3,1.2-4.7c0.8-1.3,1.9-2.3,3.3-3c1.4-0.7,3-1,4.7-1c1.8,0,3.4,0.3,4.8,1c1.4,0.7,2.5,1.7,3.3,3
		c0.8,1.3,1.2,2.9,1.2,4.8C210.7,56.8,210.2,58.3,209.4,59.6z M203.5,57.6c0.5-0.6,0.8-1.5,0.8-2.6c0-1.1-0.3-2.1-0.8-2.8
		c-0.5-0.7-1.2-1.1-2.1-1.1c-0.9,0-1.7,0.3-2.2,1c-0.5,0.7-0.8,1.6-0.8,2.7c0,1.1,0.2,2,0.7,2.7s1.2,1,2.1,1
		C202.3,58.5,203,58.2,203.5,57.6z"/>
	<path class="st0" d="M229,46.8v16.9c0,1.4-0.4,2.6-1.1,3.7c-0.8,1.1-1.8,2-3.2,2.6s-2.9,0.9-4.7,0.9c-0.9,0-2.2-0.2-3.8-0.5
		c-1.6-0.3-2.8-0.8-3.8-1.4l1.9-4.3c1,0.5,1.9,0.8,2.7,1c0.8,0.2,1.7,0.3,2.5,0.3c1,0,1.8-0.2,2.4-0.7s0.9-1,0.9-1.6v-0.6
		c-0.8,0.3-1.6,0.4-2.4,0.4c-2.5,0-4.6-0.7-6.1-2.2c-1.5-1.4-2.3-3.6-2.3-6.4c0-2.9,0.8-5,2.4-6.5c1.6-1.5,3.7-2.3,6.3-2.3
		c1.6,0,3.1,0.5,4.4,1.6l0.8-1H229z M222.9,58.3v-6.9c-0.7-0.3-1.2-0.4-1.8-0.4c-0.8,0-1.4,0.4-2,1.1c-0.5,0.7-0.8,1.7-0.8,2.9
		c0,1.2,0.3,2.2,0.8,2.9c0.5,0.7,1.3,1,2.2,1C221.9,58.8,222.4,58.6,222.9,58.3z"/>
	<path class="st0" d="M235.7,44.5c-0.9,0-1.7-0.3-2.3-1c-0.7-0.7-1-1.4-1-2.3c0-0.9,0.3-1.7,1-2.4c0.7-0.7,1.4-1,2.3-1
		c0.9,0,1.7,0.3,2.4,1c0.7,0.7,1,1.5,1,2.4c0,0.9-0.3,1.7-1,2.3C237.4,44.2,236.6,44.5,235.7,44.5z M232.6,63.2V46.7h6.2v16.4H232.6
		z"/>
	<path class="st0" d="M255.7,47.8l-1.7,4.2c-0.7-0.3-1.2-0.6-1.7-0.7c-0.5-0.1-1-0.2-1.6-0.2c-0.9,0-1.6,0.4-2.3,1
		c-0.6,0.7-1,1.6-1,2.7c0,1.1,0.3,2,0.9,2.6c0.6,0.6,1.4,0.9,2.3,0.9c0.6,0,1.1-0.1,1.6-0.2c0.5-0.1,1.1-0.4,1.7-0.7l1.7,4.2
		c-1.4,1.1-3.3,1.7-5.6,1.7c-2.7,0-4.9-0.7-6.5-2.3c-1.6-1.5-2.5-3.6-2.5-6.3c0-1.8,0.4-3.4,1.1-4.7c0.8-1.3,1.8-2.3,3.2-3
		c1.4-0.7,2.9-1,4.7-1C252.5,46.2,254.3,46.7,255.7,47.8z"/>
</g>
<g>
	<path class="st0" d="M113.6,211.8v-23h6.2v23H113.6z"/>
	<path class="st0" d="M130.3,211.8h-6.2v-16.4h3.7l1.1,1.7c2.4-1.5,4.6-2.2,6.7-2.2c2,0,3.5,0.6,4.5,1.7c1,1.2,1.5,2.7,1.5,4.6v10.6
		h-6.2v-10c0-0.6-0.1-1-0.4-1.4c-0.3-0.4-0.7-0.6-1.4-0.6c-0.4,0-0.9,0.1-1.5,0.3c-0.7,0.2-1.3,0.4-1.8,0.7V211.8z"/>
	<path class="st0" d="M156.5,196l0.6,4.8h-4.9v4.1c0,0.7,0.2,1.2,0.5,1.6c0.3,0.4,0.8,0.6,1.4,0.6c0.8,0,1.6-0.2,2.4-0.6l1.8,4.2
		c-0.4,0.4-1.1,0.7-2,1c-0.9,0.3-1.8,0.5-2.5,0.5c-1.4,0-2.6-0.2-3.8-0.7c-1.2-0.5-2.1-1.2-2.8-2.2c-0.7-1-1.1-2.2-1.1-3.6v-4.7
		h-2.5V196h2.5v-4.4l6.2-0.8v5.3H156.5z"/>
	<path class="st0" d="M175.9,205.1h-10c0.2,0.7,0.6,1.2,1.3,1.6c0.6,0.4,1.4,0.6,2.5,0.6c1.6,0,3.1-0.4,4.5-1.1l1.7,4.2
		c-0.7,0.5-1.7,0.9-2.9,1.3c-1.3,0.3-2.6,0.5-3.9,0.5c-1.9,0-3.6-0.3-5.1-1c-1.5-0.7-2.6-1.6-3.5-2.9c-0.8-1.3-1.3-2.8-1.3-4.7
		c0-1.8,0.4-3.3,1.2-4.7c0.8-1.3,1.8-2.4,3.2-3.1c1.3-0.7,2.8-1.1,4.5-1.1c1.7,0,3.1,0.4,4.3,1.2s2.1,1.8,2.7,3.1s0.9,2.7,0.9,4.3
		V205.1z M165.8,202.1h4.3c0-0.6-0.2-1.1-0.5-1.6c-0.4-0.5-0.9-0.7-1.6-0.7c-0.6,0-1.1,0.2-1.5,0.7S165.7,201.4,165.8,202.1z"/>
	<path class="st0" d="M184.4,211.8h-6.2v-16.4h3.1l1.5,2c0.8-0.5,1.7-1,2.7-1.4c1-0.4,2-0.6,2.8-0.6l1.3,4.9c-0.8,0-1.7,0.2-2.7,0.5
		c-1,0.3-1.8,0.8-2.5,1.3V211.8z"/>
	<path class="st0" d="M190.3,200.9V196h2.7v-1.5c0-1.4,0.4-2.6,1.1-3.6c0.7-1,1.7-1.7,2.8-2.2s2.4-0.7,3.8-0.7
		c0.8,0,1.6,0.2,2.5,0.5c0.9,0.3,1.6,0.6,2,1l-1.8,4.2c-0.8-0.4-1.6-0.6-2.4-0.6c-0.6,0-1.1,0.2-1.4,0.6s-0.5,0.9-0.5,1.6v0.8h4.5
		l0.6,4.8h-5.1v10.9H193v-10.9H190.3z"/>
	<path class="st0" d="M208.5,200.8l-1.6-4.4c0.9-0.4,2.1-0.8,3.4-1.1c1.3-0.3,2.6-0.5,3.9-0.5c2.2,0,3.9,0.6,5,1.8s1.8,2.9,1.8,5
		v10.2h-3l-1.8-1.7c-1.1,1.4-2.3,2.1-3.7,2.1c-2,0-3.6-0.5-4.6-1.5c-1-1-1.6-2.4-1.6-4.1c0-3.2,2.1-4.8,6.4-4.8h2
		c-0.1-0.6-0.3-1.1-0.7-1.4c-0.4-0.3-0.9-0.5-1.4-0.5c-0.5,0-1.2,0.1-2,0.3C209.8,200.3,209.1,200.5,208.5,200.8z M211.4,206.4
		c0,0.3,0.1,0.6,0.3,0.8c0.2,0.2,0.5,0.3,0.8,0.3c0.7,0,1.4-0.3,2.2-0.9v-1.6h-1.9c-0.4,0-0.7,0.1-1,0.4
		C211.6,205.7,211.4,206,211.4,206.4z"/>
	<path class="st0" d="M237.7,196.4l-1.7,4.2c-0.7-0.3-1.2-0.6-1.7-0.7c-0.5-0.1-1-0.2-1.6-0.2c-0.9,0-1.6,0.3-2.3,1
		c-0.6,0.7-1,1.6-1,2.7c0,1.1,0.3,2,0.9,2.6c0.6,0.6,1.4,0.9,2.3,0.9c0.6,0,1.1-0.1,1.6-0.2c0.5-0.1,1.1-0.4,1.7-0.7l1.7,4.2
		c-1.4,1.1-3.3,1.7-5.6,1.7c-2.7,0-4.9-0.7-6.5-2.3c-1.6-1.5-2.5-3.6-2.5-6.3c0-1.8,0.4-3.4,1.1-4.7c0.8-1.3,1.8-2.3,3.2-3
		s2.9-1,4.7-1C234.4,194.8,236.3,195.3,237.7,196.4z"/>
	<path class="st0" d="M255.3,205.1h-10c0.2,0.7,0.6,1.2,1.3,1.6c0.6,0.4,1.4,0.6,2.5,0.6c1.6,0,3.1-0.4,4.5-1.1l1.7,4.2
		c-0.7,0.5-1.7,0.9-2.9,1.3c-1.3,0.3-2.6,0.5-3.9,0.5c-1.9,0-3.6-0.3-5.1-1c-1.5-0.7-2.6-1.6-3.5-2.9c-0.8-1.3-1.3-2.8-1.3-4.7
		c0-1.8,0.4-3.3,1.2-4.7c0.8-1.3,1.8-2.4,3.2-3.1c1.3-0.7,2.8-1.1,4.5-1.1c1.7,0,3.1,0.4,4.3,1.2s2.1,1.8,2.7,3.1s0.9,2.7,0.9,4.3
		V205.1z M245.1,202.1h4.3c0-0.6-0.2-1.1-0.5-1.6c-0.4-0.5-0.9-0.7-1.6-0.7c-0.6,0-1.1,0.2-1.5,0.7S245.1,201.4,245.1,202.1z"/>
</g>
<g>
	<linearGradient id="SVGID_3_" gradientUnits="userSpaceOnUse" x1="509.1396" y1="-37.0609" x2="509.1396" y2="184.6466">
		<stop  offset="0" style="stop-color:#8E523B"/>
		<stop  offset="1" style="stop-color:#8C2D4D"/>
	</linearGradient>
	<path class="st5" d="M652.5,55.6L515.2,10.5c-3.9-1.4-8.2-1.4-12.1,0L365.7,55.6h-5.4v10.1h0c0,2.6,1.5,5.3,4.5,6.3l132.4,46.7
		c7.7,2.7,16.1,2.7,23.9,0l132.4-46.6c3-1.1,4.5-3.7,4.5-6.4h0V55.6H652.5z"/>
	<linearGradient id="SVGID_4_" gradientUnits="userSpaceOnUse" x1="509.1396" y1="-46.5351" x2="509.1396" y2="175.1724">
		<stop  offset="0" style="stop-color:#F6906B"/>
		<stop  offset="1" style="stop-color:#F05886"/>
	</linearGradient>
	<path class="st6" d="M497.2,109.2L364.8,62.5c-6.1-2.1-6.1-10.7,0-12.8L503.1,1c3.9-1.4,8.2-1.4,12.1,0l138.3,48.7
		c6.1,2.1,6.1,10.7,0,12.8l-132.4,46.6C513.3,111.9,504.9,111.9,497.2,109.2z"/>
	<g class="st7">
		<path class="st8" d="M656.9,52.4c-0.2-0.3-0.4-0.6-0.7-0.9l-11.7,4.1l-17.7-6.2l12.8-4.5l-1.6-0.6l-12.8,4.5l-17.7-6.3l12.8-4.5
			l-1.6-0.6L605.8,42L588,35.7l12.8-4.5l-1.6-0.6l-12.9,4.5l-17.7-6.2l12.9-4.5l-1.6-0.6L567,28.4l-17.8-6.2l12.9-4.5l-1.6-0.6
			l-12.8,4.5l-17.8-6.3l12.9-4.5l-1.6-0.6l-12.9,4.5l-17.7-6.2L523.4,4l-1.6-0.6L509,7.9l-12.7-4.5L494.6,4l12.7,4.5l-17.7,6.2
			l-12.7-4.5l-1.6,0.6l12.7,4.5l-17.7,6.3l-12.7-4.5l-1.6,0.6l12.7,4.5l-17.8,6.2l-12.7-4.5l-1.6,0.6l12.7,4.5l-17.7,6.2l-12.7-4.5
			l-1.6,0.6l12.7,4.5L412.2,42l-12.7-4.5l-1.6,0.6l12.7,4.5l-17.8,6.3l-12.7-4.5l-1.6,0.6l12.7,4.5l-17.7,6.2l-11.5-4
			c-0.3,0.3-0.5,0.6-0.7,0.9l10.5,3.7l-10.5,3.7c0.2,0.3,0.4,0.6,0.7,0.9l11.4-4l17.7,6.3l-12.6,4.4l1.6,0.6l12.6-4.4l17.8,6.3
			L398,74.2l1.6,0.6l12.6-4.4l17.8,6.2l-12.6,4.4l1.6,0.6l12.6-4.4l17.7,6.2l-12.6,4.4l1.6,0.6l12.6-4.4l17.8,6.3L456,94.7l1.6,0.6
			l12.6-4.4l17.7,6.3l-12.6,4.4l1.6,0.6l12.6-4.4l17.7,6.2l-12.6,4.4l1.6,0.6l12.6-4.4l12.8,4.5l1.6-0.6l-12.8-4.5l17.7-6.2
			l12.8,4.5l1.6-0.6l-12.8-4.5l17.8-6.3l12.8,4.5l1.6-0.6l-12.8-4.5L567,84l12.8,4.5l1.6-0.6l-12.8-4.5l17.7-6.2l12.8,4.5l1.6-0.6
			L588,76.6l17.8-6.2l12.8,4.5l1.6-0.6l-12.8-4.5l17.7-6.3l12.8,4.5l1.6-0.6L626.7,63l17.7-6.3l11.7,4.1c0.3-0.3,0.5-0.6,0.7-0.9
			l-10.8-3.8L656.9,52.4z M623.5,49.4l-17.7,6.2L588,49.4l17.8-6.3L623.5,49.4z M510.6,49.4l17.7-6.3l17.8,6.3l-17.8,6.2L510.6,49.4
			z M526.7,56.2L509,62.4l-17.8-6.3l17.8-6.2L526.7,56.2z M509,48.8l-17.8-6.3l17.8-6.2l17.8,6.2L509,48.8z M507.3,49.4l-17.7,6.2
			l-17.7-6.2l17.7-6.3L507.3,49.4z M488,56.2l-17.7,6.3l-17.7-6.3l17.7-6.2L488,56.2z M489.6,56.8l17.7,6.3l-17.7,6.3L471.9,63
			L489.6,56.8z M509,63.6l17.8,6.3L509,76.1l-17.8-6.2L509,63.6z M510.6,63l17.7-6.3l17.8,6.3l-17.8,6.3L510.6,63z M529.9,56.2
			l17.8-6.2l17.7,6.2l-17.7,6.3L529.9,56.2z M549.3,49.4l17.8-6.3l17.7,6.3L567,55.6L549.3,49.4z M547.7,48.8l-17.8-6.3l17.8-6.2
			l17.7,6.2L547.7,48.8z M528.3,42l-17.7-6.3l17.7-6.2l17.8,6.2L528.3,42z M509,35.2l-17.8-6.2l17.8-6.3l17.8,6.3L509,35.2z
			 M507.3,35.7L489.6,42l-17.7-6.3l17.7-6.2L507.3,35.7z M488,42.6l-17.7,6.3l-17.7-6.3l17.7-6.2L488,42.6z M468.6,49.4l-17.8,6.2
			l-17.7-6.2l17.7-6.3L468.6,49.4z M449.3,56.2l-17.7,6.3l-17.8-6.3l17.8-6.2L449.3,56.2z M450.9,56.8l17.8,6.3l-17.8,6.3L433.1,63
			L450.9,56.8z M470.2,63.6l17.7,6.3l-17.7,6.2l-17.7-6.2L470.2,63.6z M489.6,70.4l17.7,6.2l-17.7,6.2l-17.7-6.2L489.6,70.4z
			 M509,77.2l17.8,6.2L509,89.7l-17.8-6.3L509,77.2z M510.6,76.6l17.7-6.2l17.8,6.2l-17.8,6.2L510.6,76.6z M529.9,69.8l17.8-6.3
			l17.7,6.3l-17.7,6.2L529.9,69.8z M549.3,63l17.8-6.3l17.7,6.3L567,69.3L549.3,63z M568.7,56.2l17.7-6.2l17.8,6.2l-17.8,6.3
			L568.7,56.2z M604.1,42.6l-17.8,6.3l-17.7-6.3l17.7-6.2L604.1,42.6z M584.8,35.7L567,42l-17.8-6.3l17.8-6.2L584.8,35.7z
			 M565.4,28.9l-17.7,6.2l-17.8-6.2l17.8-6.3L565.4,28.9z M546.1,22.1l-17.8,6.2l-17.7-6.2l17.7-6.3L546.1,22.1z M509,9.1l17.8,6.2
			L509,21.6l-17.8-6.3L509,9.1z M489.6,15.9l17.7,6.3l-17.7,6.2l-17.7-6.2L489.6,15.9z M470.2,22.7l17.7,6.3l-17.7,6.2l-17.7-6.2
			L470.2,22.7z M450.9,29.5l17.8,6.2L450.9,42l-17.7-6.3L450.9,29.5z M431.5,36.3l17.7,6.2l-17.7,6.3l-17.8-6.3L431.5,36.3z
			 M412.2,43.1l17.8,6.3l-17.8,6.2l-17.7-6.2L412.2,43.1z M375.1,56.2l17.7-6.2l17.8,6.2l-17.8,6.3L375.1,56.2z M394.4,63l17.7-6.3
			l17.8,6.3l-17.8,6.3L394.4,63z M413.8,69.8l17.8-6.3l17.7,6.3l-17.7,6.2L413.8,69.8z M433.1,76.6l17.7-6.2l17.8,6.2l-17.8,6.2
			L433.1,76.6z M452.5,83.4l17.7-6.2l17.7,6.2l-17.7,6.3L452.5,83.4z M471.9,90.3l17.7-6.3l17.7,6.3l-17.7,6.3L471.9,90.3z
			 M509,103.3l-17.8-6.2l17.8-6.3l17.8,6.3L509,103.3z M528.3,96.5l-17.7-6.3l17.7-6.3l17.8,6.3L528.3,96.5z M547.7,89.7l-17.8-6.3
			l17.8-6.2l17.7,6.2L547.7,89.7z M567,82.9l-17.8-6.2l17.8-6.2l17.7,6.2L567,82.9z M586.4,76.1l-17.7-6.2l17.7-6.3l17.8,6.3
			L586.4,76.1z M605.8,69.3L588,63l17.8-6.3l17.7,6.3L605.8,69.3z M625.1,62.4l-17.7-6.3l17.7-6.2l17.8,6.2L625.1,62.4z"/>
	</g>
</g>
<g>
	<linearGradient id="SVGID_5_" gradientUnits="userSpaceOnUse" x1="509.1396" y1="107.3571" x2="509.1396" y2="329.0646">
		<stop  offset="0" style="stop-color:#4D795C"/>
		<stop  offset="1" style="stop-color:#00697A"/>
	</linearGradient>
	<path class="st9" d="M652.5,200l-137.3-45.1c-3.9-1.4-8.2-1.4-12.1,0L365.7,200h-5.4v10.1h0c0,2.6,1.5,5.3,4.5,6.3l132.4,46.7
		c7.7,2.7,16.1,2.7,23.9,0l132.4-46.6c3-1.1,4.5-3.7,4.5-6.4h0V200H652.5z"/>
	<linearGradient id="SVGID_6_" gradientUnits="userSpaceOnUse" x1="509.1396" y1="133.5697" x2="509.1396" y2="304.539">
		<stop  offset="0" style="stop-color:#8BCC9C"/>
		<stop  offset="0.3911" style="stop-color:#53C1AE"/>
		<stop  offset="1" style="stop-color:#00AFCA"/>
	</linearGradient>
	<path class="st10" d="M497.2,253.3l-132.4-46.7c-6.1-2.1-6.1-10.7,0-12.8l138.3-48.7c3.9-1.4,8.2-1.4,12.1,0l138.3,48.7
		c6.1,2.1,6.1,10.7,0,12.8l-132.4,46.6C513.3,256,504.9,256,497.2,253.3z"/>
	<g class="st7">
		<path class="st8" d="M656.9,195.9c-0.2-0.3-0.4-0.6-0.7-0.9l-11.7,4.1l-17.7-6.2l12.8-4.5l-1.6-0.6l-12.8,4.5l-17.7-6.3l12.8-4.5
			l-1.6-0.6l-12.8,4.5l-17.8-6.3l12.8-4.5l-1.6-0.6l-12.9,4.5l-17.7-6.2l12.9-4.5l-1.6-0.6l-12.9,4.5l-17.8-6.2l12.9-4.5l-1.6-0.6
			l-12.8,4.5l-17.8-6.3l12.9-4.5l-1.6-0.6l-12.9,4.5l-17.7-6.2l12.9-4.5l-1.6-0.6l-12.9,4.5l-12.7-4.5l-1.6,0.6l12.7,4.5l-17.7,6.2
			l-12.7-4.5l-1.6,0.6l12.7,4.5l-17.7,6.3l-12.7-4.5l-1.6,0.6l12.7,4.5l-17.8,6.2l-12.7-4.5l-1.6,0.6l12.7,4.5l-17.7,6.2l-12.7-4.5
			l-1.6,0.6l12.7,4.5l-17.8,6.3l-12.7-4.5l-1.6,0.6l12.7,4.5l-17.8,6.3l-12.7-4.5l-1.6,0.6l12.7,4.5l-17.7,6.2l-11.5-4
			c-0.3,0.3-0.5,0.6-0.7,0.9l10.5,3.7l-10.5,3.7c0.2,0.3,0.4,0.6,0.7,0.9l11.4-4l17.7,6.3l-12.6,4.4l1.6,0.6l12.6-4.4l17.8,6.3
			l-12.6,4.4l1.6,0.6l12.6-4.4l17.8,6.2l-12.6,4.4l1.6,0.6l12.6-4.4l17.7,6.2l-12.6,4.4l1.6,0.6l12.6-4.4l17.8,6.3l-12.6,4.4
			l1.6,0.6l12.6-4.4l17.7,6.3l-12.6,4.4l1.6,0.6l12.6-4.4l17.7,6.2l-12.6,4.4l1.6,0.6L509,248l12.8,4.5l1.6-0.6l-12.8-4.5l17.7-6.2
			l12.8,4.5l1.6-0.6l-12.8-4.5l17.8-6.3l12.8,4.5l1.6-0.6l-12.8-4.5l17.8-6.3l12.8,4.5l1.6-0.6l-12.8-4.5l17.7-6.2l12.8,4.5l1.6-0.6
			l-12.8-4.5l17.8-6.2l12.8,4.5l1.6-0.6l-12.8-4.5l17.7-6.3l12.8,4.5l1.6-0.6l-12.8-4.5l17.7-6.3l11.7,4.1c0.3-0.3,0.5-0.6,0.7-0.9
			l-10.8-3.8L656.9,195.9z M623.5,192.9l-17.7,6.2l-17.8-6.2l17.8-6.3L623.5,192.9z M510.6,192.9l17.7-6.3l17.8,6.3l-17.8,6.2
			L510.6,192.9z M526.8,199.7L509,206l-17.8-6.3l17.8-6.2L526.8,199.7z M509,192.3l-17.8-6.3l17.8-6.2l17.8,6.2L509,192.3z
			 M507.4,192.9l-17.7,6.2l-17.7-6.2l17.7-6.3L507.4,192.9z M488,199.7l-17.7,6.3l-17.7-6.3l17.7-6.2L488,199.7z M489.6,200.3
			l17.7,6.3l-17.7,6.3l-17.7-6.3L489.6,200.3z M509,207.1l17.8,6.3l-17.8,6.2l-17.8-6.2L509,207.1z M510.6,206.5l17.7-6.3l17.8,6.3
			l-17.8,6.3L510.6,206.5z M530,199.7l17.8-6.2l17.7,6.2l-17.7,6.3L530,199.7z M549.3,192.9l17.8-6.3l17.7,6.3l-17.7,6.2
			L549.3,192.9z M547.7,192.3l-17.8-6.3l17.8-6.2l17.7,6.2L547.7,192.3z M528.4,185.5l-17.7-6.3l17.7-6.2l17.8,6.2L528.4,185.5z
			 M509,178.7l-17.8-6.2l17.8-6.3l17.8,6.3L509,178.7z M507.4,179.3l-17.7,6.3l-17.7-6.3l17.7-6.2L507.4,179.3z M488,186.1
			l-17.7,6.3l-17.7-6.3l17.7-6.2L488,186.1z M468.7,192.9l-17.8,6.2l-17.7-6.2l17.7-6.3L468.7,192.9z M449.3,199.7l-17.7,6.3
			l-17.8-6.3l17.8-6.2L449.3,199.7z M450.9,200.3l17.8,6.3l-17.8,6.3l-17.7-6.3L450.9,200.3z M470.3,207.1l17.7,6.3l-17.7,6.2
			l-17.7-6.2L470.3,207.1z M489.6,213.9l17.7,6.2l-17.7,6.2l-17.7-6.2L489.6,213.9z M509,220.7l17.8,6.2l-17.8,6.3l-17.8-6.3
			L509,220.7z M510.6,220.2l17.7-6.2l17.8,6.2l-17.8,6.2L510.6,220.2z M530,213.4l17.8-6.3l17.7,6.3l-17.7,6.2L530,213.4z
			 M549.3,206.5l17.8-6.3l17.7,6.3l-17.7,6.3L549.3,206.5z M568.7,199.7l17.7-6.2l17.8,6.2l-17.8,6.3L568.7,199.7z M604.2,186.1
			l-17.8,6.3l-17.7-6.3l17.7-6.2L604.2,186.1z M584.8,179.3l-17.7,6.3l-17.8-6.3l17.8-6.2L584.8,179.3z M565.5,172.5l-17.7,6.2
			l-17.8-6.2l17.8-6.3L565.5,172.5z M546.1,165.7l-17.8,6.2l-17.7-6.2l17.7-6.3L546.1,165.7z M509,152.6l17.8,6.2l-17.8,6.3
			l-17.8-6.3L509,152.6z M489.6,159.4l17.7,6.3l-17.7,6.2l-17.7-6.2L489.6,159.4z M470.3,166.2l17.7,6.3l-17.7,6.2l-17.7-6.2
			L470.3,166.2z M450.9,173l17.8,6.2l-17.8,6.3l-17.7-6.3L450.9,173z M431.6,179.9l17.7,6.2l-17.7,6.3l-17.8-6.3L431.6,179.9z
			 M412.2,186.7l17.8,6.3l-17.8,6.2l-17.7-6.2L412.2,186.7z M375.1,199.7l17.7-6.2l17.8,6.2l-17.8,6.3L375.1,199.7z M394.5,206.5
			l17.7-6.3l17.8,6.3l-17.8,6.3L394.5,206.5z M413.8,213.4l17.8-6.3l17.7,6.3l-17.7,6.2L413.8,213.4z M433.2,220.2l17.7-6.2
			l17.8,6.2l-17.8,6.2L433.2,220.2z M452.5,227l17.7-6.2L488,227l-17.7,6.3L452.5,227z M471.9,233.8l17.7-6.3l17.7,6.3l-17.7,6.3
			L471.9,233.8z M509,246.9l-17.8-6.2l17.8-6.3l17.8,6.3L509,246.9z M528.4,240.1l-17.7-6.3l17.7-6.3l17.8,6.3L528.4,240.1z
			 M547.7,233.2L530,227l17.8-6.2l17.7,6.2L547.7,233.2z M567.1,226.4l-17.8-6.2l17.8-6.2l17.7,6.2L567.1,226.4z M586.4,219.6
			l-17.7-6.2l17.7-6.3l17.8,6.3L586.4,219.6z M605.8,212.8l-17.8-6.3l17.8-6.3l17.7,6.3L605.8,212.8z M625.2,206l-17.7-6.3l17.7-6.2
			l17.8,6.2L625.2,206z"/>
	</g>
</g>
<g>
	<line class="st11" x1="271.7" y1="54.6" x2="342.3" y2="54.6"/>
	<linearGradient id="SVGID_7_" gradientUnits="userSpaceOnUse" x1="307.0061" y1="54.1466" x2="307.0061" y2="55.1466">
		<stop  offset="0" style="stop-color:#F6906B"/>
		<stop  offset="1" style="stop-color:#F05886"/>
	</linearGradient>
	<rect x="271.7" y="54.1" class="st12" width="70.6" height="1"/>
</g>
<g>
	<circle class="st11" cx="271.7" cy="54.6" r="4.7"/>
</g>
<g>
	<circle class="st11" cx="342.3" cy="54.6" r="4.7"/>
</g>
<g>
	<line class="st13" x1="271.7" y1="205.4" x2="342.3" y2="205.4"/>
	<linearGradient id="SVGID_8_" gradientUnits="userSpaceOnUse" x1="271.7109" y1="205.4161" x2="342.3013" y2="205.4161">
		<stop  offset="0" style="stop-color:#8BCC9C"/>
		<stop  offset="0.3911" style="stop-color:#53C1AE"/>
		<stop  offset="1" style="stop-color:#00AFCA"/>
	</linearGradient>
	<rect x="271.7" y="204.9" class="st14" width="70.6" height="1"/>
</g>
<circle class="st13" cx="271.7" cy="205.4" r="4.7"/>
<circle class="st13" cx="342.3" cy="205.4" r="4.7"/>
<g>
	<line class="st4" x1="271.7" y1="254.2" x2="342.3" y2="254.2"/>
	<rect x="271.7" y="253.7" class="st4" width="70.6" height="1"/>
</g>
<circle class="st4" cx="271.7" cy="254.2" r="4.7"/>
<circle class="st4" cx="342.3" cy="254.2" r="4.7"/>
</svg>
