<?xml version="1.0" encoding="utf-8"?>
<!-- Generator: Adobe Illustrator 24.1.1, SVG Export Plug-In . SVG Version: 6.00 Build 0)  -->
<svg version="1.1" id="Layer_1" xmlns="http://www.w3.org/2000/svg" xmlns:xlink="http://www.w3.org/1999/xlink" x="0px" y="0px"
	 viewBox="0 0 683.7 568.8" style="enable-background:new 0 0 683.7 568.8;" xml:space="preserve">
<style type="text/css">
	.st0{fill:url(#SVGID_1_);}
	.st1{fill:url(#SVGID_2_);}
	.st2{fill:url(#SVGID_3_);}
	.st3{fill:url(#SVGID_4_);}
	.st4{fill:url(#SVGID_5_);}
	.st5{fill:url(#SVGID_6_);}
	.st6{fill:url(#SVGID_7_);}
	.st7{fill:url(#SVGID_8_);}
	.st8{fill:url(#SVGID_9_);}
	.st9{fill:url(#SVGID_10_);}
	.st10{fill:url(#SVGID_11_);}
	.st11{fill:url(#SVGID_12_);}
	.st12{fill:url(#SVGID_13_);}
	.st13{fill:url(#SVGID_14_);}
</style>
<g>
	<linearGradient id="SVGID_1_" gradientUnits="userSpaceOnUse" x1="20.0368" y1="481.4915" x2="19.4791" y2="564.0299">
		<stop  offset="0" style="stop-color:#9DDCF9"/>
		<stop  offset="1" style="stop-color:#00ACC6"/>
	</linearGradient>
	<path class="st0" d="M0.2,564.3L5,553.5c1.4,0.8,3.4,1.6,5.9,2.3c2.5,0.7,4.7,1.1,6.6,1.1c2.1,0,3.8-0.4,5.1-1.3
		c1.3-0.9,1.9-1.8,1.9-2.9c0-0.7-0.5-1.4-1.4-2c-0.9-0.7-2.4-1.6-4.5-2.8l-2.4-1.4c-3.6-2.1-6.4-3.9-8.4-5.3c-2-1.4-3.8-3.2-5.4-5.4
		c-1.6-2.2-2.4-4.7-2.4-7.5c0-2.9,0.8-5.6,2.5-7.9c1.7-2.3,4-4.2,7-5.5c3-1.3,6.5-2,10.5-2c2.7,0,5.5,0.4,8.4,1.2
		c2.9,0.8,5.3,1.9,7.4,3.2l-4.3,9.7c-2.8-0.9-4.9-1.6-6.4-1.9c-1.5-0.3-3.1-0.5-4.9-0.5c-1.6,0-2.9,0.4-3.8,1.1
		c-1,0.7-1.5,1.6-1.5,2.7c0,0.8,0.4,1.5,1.2,2.1c0.8,0.6,2.2,1.4,4.1,2.4l2.8,1.6c3.3,1.9,6.1,3.7,8.3,5.3c2.2,1.6,4.1,3.5,5.7,5.7
		c1.6,2.2,2.3,4.7,2.3,7.4c0,3.1-0.9,5.8-2.6,8.1c-1.7,2.4-4.2,4.2-7.5,5.6c-3.2,1.4-7,2.1-11.3,2.1c-2.8,0-5.9-0.4-9.4-1.3
		C5,566.6,2.3,565.5,0.2,564.3z"/>
	<linearGradient id="SVGID_2_" gradientUnits="userSpaceOnUse" x1="93.5238" y1="481.988" x2="92.9661" y2="564.5264">
		<stop  offset="0" style="stop-color:#9DDCF9"/>
		<stop  offset="1" style="stop-color:#00ACC6"/>
	</linearGradient>
	<path class="st1" d="M93.1,512.8c5.7,0,10.6,1.2,14.8,3.6c4.2,2.4,7.4,5.7,9.6,10c2.2,4.2,3.4,8.9,3.4,14.1
		c0,5.5-1.2,10.4-3.5,14.7c-2.3,4.3-5.6,7.6-9.8,10c-4.2,2.4-9,3.6-14.5,3.6c-5.6,0-10.5-1.2-14.7-3.7c-4.2-2.4-7.4-5.8-9.7-10
		c-2.3-4.2-3.4-8.9-3.4-14.1c0-5.4,1.2-10.3,3.6-14.6c2.4-4.3,5.7-7.6,9.9-10C83,514,87.8,512.8,93.1,512.8z M80.1,540.9
		c0,4.6,1.1,8.4,3.4,11.4c2.3,3,5.4,4.4,9.4,4.4c3.8,0,7-1.4,9.4-4.2c2.4-2.8,3.7-6.8,3.7-12.1c0-4.6-1.2-8.3-3.5-11.3
		c-2.3-2.9-5.5-4.4-9.4-4.4c-2.4,0-4.6,0.7-6.6,2c-2,1.3-3.6,3.2-4.7,5.7C80.7,535,80.1,537.8,80.1,540.9z"/>
	<linearGradient id="SVGID_3_" gradientUnits="userSpaceOnUse" x1="171.395" y1="482.5142" x2="170.8373" y2="565.0526">
		<stop  offset="0" style="stop-color:#9DDCF9"/>
		<stop  offset="1" style="stop-color:#00ACC6"/>
	</linearGradient>
	<path class="st2" d="M190.3,567.7h-38.6v-53.7h14.4v42.4h22.8L190.3,567.7z"/>
	<linearGradient id="SVGID_4_" gradientUnits="userSpaceOnUse" x1="227.1017" y1="482.8906" x2="226.5441" y2="565.429">
		<stop  offset="0" style="stop-color:#9DDCF9"/>
		<stop  offset="1" style="stop-color:#00ACC6"/>
	</linearGradient>
	<path class="st3" d="M219.5,567.7v-53.7h14.4v53.7H219.5z"/>
	<linearGradient id="SVGID_5_" gradientUnits="userSpaceOnUse" x1="293.8189" y1="483.3414" x2="293.2613" y2="565.8798">
		<stop  offset="0" style="stop-color:#9DDCF9"/>
		<stop  offset="1" style="stop-color:#00ACC6"/>
	</linearGradient>
	<path class="st4" d="M292.7,567.7h-24v-53.7H293c5.4,0,10,1.1,13.8,3.4s6.7,5.4,8.7,9.4c1.9,4,2.9,8.6,2.9,13.7
		c0,5.5-1.1,10.3-3.2,14.4c-2.2,4.1-5.2,7.3-9.1,9.5C302.1,566.5,297.7,567.7,292.7,567.7z M292.3,525.2h-9.2v31.1h8.7
		c3.5,0,6.3-1.4,8.5-4.1c2.2-2.7,3.3-6.7,3.3-11.8c0-4.5-1-8.2-3-11C298.6,526.6,295.8,525.2,292.3,525.2z"/>
	<linearGradient id="SVGID_6_" gradientUnits="userSpaceOnUse" x1="365.6844" y1="512.7955" x2="363.4626" y2="589.4484">
		<stop  offset="0" style="stop-color:#47608F"/>
		<stop  offset="1" style="stop-color:#262262"/>
	</linearGradient>
	<path class="st5" d="M345.5,564.3l4.7-10.8c1.4,0.8,3.4,1.6,5.9,2.3c2.5,0.7,4.7,1.1,6.6,1.1c2.1,0,3.8-0.4,5.1-1.3
		c1.3-0.9,1.9-1.8,1.9-2.9c0-0.7-0.5-1.4-1.4-2c-0.9-0.7-2.4-1.6-4.5-2.8l-2.4-1.4c-3.6-2.1-6.4-3.9-8.4-5.3c-2-1.4-3.8-3.2-5.4-5.4
		c-1.6-2.2-2.4-4.7-2.4-7.5c0-2.9,0.8-5.6,2.5-7.9c1.7-2.3,4-4.2,7-5.5c3-1.3,6.5-2,10.5-2c2.7,0,5.5,0.4,8.4,1.2
		c2.9,0.8,5.3,1.9,7.4,3.2l-4.3,9.7c-2.8-0.9-4.9-1.6-6.4-1.9c-1.5-0.3-3.1-0.5-4.9-0.5c-1.6,0-2.9,0.4-3.8,1.1
		c-1,0.7-1.5,1.6-1.5,2.7c0,0.8,0.4,1.5,1.2,2.1c0.8,0.6,2.2,1.4,4.1,2.4l2.8,1.6c3.3,1.9,6.1,3.7,8.3,5.3c2.2,1.6,4.1,3.5,5.7,5.7
		c1.6,2.2,2.3,4.7,2.3,7.4c0,3.1-0.9,5.8-2.6,8.1c-1.7,2.4-4.2,4.2-7.5,5.6c-3.2,1.4-7,2.1-11.3,2.1c-2.8,0-5.9-0.4-9.4-1.3
		C350.3,566.6,347.5,565.5,345.5,564.3z"/>
	<linearGradient id="SVGID_7_" gradientUnits="userSpaceOnUse" x1="432.8189" y1="514.7415" x2="430.5971" y2="591.3943">
		<stop  offset="0" style="stop-color:#47608F"/>
		<stop  offset="1" style="stop-color:#262262"/>
	</linearGradient>
	<path class="st6" d="M456.3,525.2h-17.1v42.4h-14.4v-42.4H409v-11.3h46L456.3,525.2z"/>
	<linearGradient id="SVGID_8_" gradientUnits="userSpaceOnUse" x1="508.8133" y1="516.9442" x2="506.5915" y2="593.597">
		<stop  offset="0" style="stop-color:#47608F"/>
		<stop  offset="0.3091" style="stop-color:#3B4C7F"/>
		<stop  offset="1" style="stop-color:#262262"/>
	</linearGradient>
	<path class="st7" d="M514.6,513.9l20.1,53.1l-14.1,1.4l-3.9-11.4h-18.6l-3.7,10.6h-14.3l20.2-53.7H514.6z M507.2,531.1l-5.1,14.6
		h10.5L507.2,531.1z"/>
	<linearGradient id="SVGID_9_" gradientUnits="userSpaceOnUse" x1="582.8802" y1="519.0911" x2="580.6584" y2="595.7438">
		<stop  offset="0" style="stop-color:#47608F"/>
		<stop  offset="1" style="stop-color:#262262"/>
	</linearGradient>
	<path class="st8" d="M603.3,517.3l-4.3,9.7c-2.8-0.9-4.9-1.6-6.4-1.9c-1.5-0.3-3.1-0.5-4.9-0.5c-2.2,0-4.2,0.7-6.2,2.1
		c-2,1.4-3.6,3.3-4.8,5.8c-1.2,2.5-1.9,5.3-1.9,8.5c0,3.2,0.6,6,1.9,8.5c1.3,2.4,2.9,4.3,5,5.6c2.1,1.3,4.3,1.9,6.5,1.9
		c3.5,0,6.9-1,10.2-2.9l5.5,10.7c-2.1,1.2-4.5,2.2-7.5,2.9c-2.9,0.7-5.8,1.1-8.6,1.1c-5.7,0-10.6-1.2-14.9-3.5
		c-4.2-2.3-7.4-5.6-9.7-9.8c-2.2-4.2-3.4-9-3.4-14.4c0-5.4,1.2-10.3,3.6-14.5c2.4-4.3,5.6-7.6,9.8-10c4.2-2.4,8.9-3.6,14.2-3.6
		c2.7,0,5.5,0.4,8.4,1.2S601.3,515.9,603.3,517.3z"/>
	<linearGradient id="SVGID_10_" gradientUnits="userSpaceOnUse" x1="658.9673" y1="521.2964" x2="656.7455" y2="597.9493">
		<stop  offset="0" style="stop-color:#47608F"/>
		<stop  offset="1" style="stop-color:#262262"/>
	</linearGradient>
	<path class="st9" d="M665.4,567.7l-13.7-20.1l-4.2,4v16.1h-14.4v-53.7h14.4v18.6l21.6-19.8l11.1,8.1L662,537.9l21.7,29.8H665.4z"/>
</g>
<g>
	<g>
		<linearGradient id="SVGID_11_" gradientUnits="userSpaceOnUse" x1="410.2984" y1="218.935" x2="267.1833" y2="80.4118">
			<stop  offset="0" style="stop-color:#47608F"/>
			<stop  offset="1" style="stop-color:#262262"/>
		</linearGradient>
		<path class="st10" d="M466.5,114.9L365.1,34.4c-10.2-8.1-22.5-12.2-34.7-12.2c-12.3,0-24.5,4.1-34.8,12.2l-101.5,80.9
			c-0.4,0.3-0.7,0.7-1.1,1c0,0,0,0,0-0.1c-0.6-6.1-6.7-3.4-6.7-3.4l-4.8,4.5l-0.1,24.5c0,10.3,4.7,20,12.8,26.4l128.3,101.9
			c5.4,4.3,13.3,3.4,17.6-2c1.8-2.3,2.6-4.9,2.7-7.6c0,0,0,0,0,0v-22l-3-2.6l-9.9,7.4c0,0-0.1,0.2-0.3,0.4l-119.8-95.2
			c-2.8-2.3-3.3-5.2-3.3-6.8c0-1.6,0.4-4.5,3.3-6.8L311.2,54c11.3-9,27-9,38.2,0l101.4,80.5c2.8,2.3,3.3,5.2,3.3,6.8
			c0,1.6-0.4,4.5-3.3,6.8l-14.6,11.6c-0.4-1.8-1-3.5-2.1-4.6c-2.9-2.7-6.9-1-6.9-1l-8.1,5.6l3.7,19l0,0c0.4,2,1.1,4,2.5,5.7
			c4.3,5.4,12.2,6.3,17.6,2l23.5-18.8c8.1-6.5,12.7-16.1,12.7-26.4C479.2,130.9,474.6,121.3,466.5,114.9z"/>
		<linearGradient id="SVGID_12_" gradientUnits="userSpaceOnUse" x1="262.4348" y1="216.0548" x2="405.5499" y2="382.1295">
			<stop  offset="0" style="stop-color:#9DDCF9"/>
			<stop  offset="1" style="stop-color:#00ACC6"/>
		</linearGradient>
		<path class="st11" d="M479.2,300.2c0-4.7,0-23.9,0-23.9l-6.5-6.8l-1.7,5.9c0,0-0.4,0.9-0.9,2.1c-1.1-1.2-2.3-2.4-3.7-3.4
			L338.1,172.1c-0.7-0.5-1.5-0.8-2.2-1.2l-2.9-9.1l-9.3-6.7l-5.7,2.5l-0.2,24.8l0.1,0c0.1,3.6,1.7,7,4.7,9.4l128.3,101.9
			c2.8,2.3,3.3,5.2,3.3,6.8c0,1.6-0.4,4.5-3.3,6.8l-101.5,81c-11.2,9-26.9,9-38.2,0l-101.4-80.5c-2.8-2.3-3.3-5.2-3.3-6.8
			c0-1.6,0.4-4.5,3.3-6.8l27.2-21.7c3.9-3.1,5.4-8.1,4.3-12.7l0,0l-3.8-19.4c0,0-8.1-1.9-8.5-1.9c-0.4,0-5.3,8-5.3,8l-0.1,4.9
			c-0.8,0.4-1.6,0.9-2.4,1.5l-27.2,21.7c-8.1,6.5-12.7,16.1-12.7,26.4c0,10.3,4.7,20,12.8,26.4l101.4,80.5
			c20.5,16.2,49,16.2,69.4-0.1l101.5-81c7.9-6.3,12.4-15.5,12.7-25.5l0,0c0-0.1,0-0.3,0-0.7c0-0.1,0-0.1,0-0.2
			C479.2,300.3,479.2,300.3,479.2,300.2z"/>
	</g>
	<g>
		<linearGradient id="SVGID_13_" gradientUnits="userSpaceOnUse" x1="401.4338" y1="200.9504" x2="266.7373" y2="46.3555">
			<stop  offset="0" style="stop-color:#9DDCF9"/>
			<stop  offset="1" style="stop-color:#00ACC6"/>
		</linearGradient>
		<path class="st12" d="M330.3,250.6c-2.7,0-5.5-0.9-7.8-2.7L194.2,146c-8.1-6.4-12.7-16-12.8-26.4c0-10.3,4.6-20,12.7-26.4
			l101.5-81C316-4,344.6-4.1,365,12.2l101.4,80.5c8.1,6.4,12.7,16,12.8,26.4s-4.6,20-12.7,26.4l-27.2,21.7c-5.4,4.3-13.3,3.4-17.6-2
			c-4.3-5.4-3.4-13.3,2-17.6l27.2-21.7c2.8-2.3,3.3-5.2,3.3-6.8c0-1.6-0.4-4.5-3.3-6.8L349.5,31.8c-11.3-8.9-27-8.9-38.2,0
			l-101.5,81c-2.8,2.3-3.3,5.2-3.3,6.8c0,1.6,0.4,4.5,3.3,6.8l128.3,101.9c5.4,4.3,6.3,12.2,2,17.6C337.7,249,334,250.6,330.3,250.6
			z"/>
		<linearGradient id="SVGID_14_" gradientUnits="userSpaceOnUse" x1="268.8554" y1="199.9704" x2="390.5415" y2="355.3307">
			<stop  offset="0" style="stop-color:#47608F"/>
			<stop  offset="1" style="stop-color:#262262"/>
		</linearGradient>
		<path class="st13" d="M330.3,397.8c-12.2,0-24.5-4.1-34.7-12.2l-101.4-80.5c-8.1-6.4-12.7-16-12.8-26.4c0-10.3,4.6-20,12.7-26.4
			l23.5-18.8c5.4-4.3,13.3-3.4,17.6,2c4.3,5.4,3.4,13.3-2,17.6l-23.5,18.7c-2.8,2.3-3.3,5.2-3.3,6.8c0,1.6,0.4,4.5,3.3,6.8
			L311.2,366c11.3,9,27,8.9,38.2,0L450.9,285c2.8-2.3,3.3-5.2,3.3-6.8c0-1.6-0.4-4.5-3.3-6.8L322.5,169.5c-5.4-4.3-6.3-12.2-2-17.6
			c4.3-5.4,12.2-6.3,17.6-2l128.3,101.9c8.1,6.4,12.7,16,12.8,26.4c0,10.3-4.6,20-12.7,26.4L365,385.5
			C354.8,393.7,342.5,397.8,330.3,397.8z"/>
	</g>
</g>
</svg>
