<?xml version="1.0" encoding="utf-8"?>
<!-- Generator: Adobe Illustrator 24.1.1, SVG Export Plug-In . SVG Version: 6.00 Build 0)  -->
<svg version="1.1" id="Layer_1" xmlns="http://www.w3.org/2000/svg" xmlns:xlink="http://www.w3.org/1999/xlink" x="0px" y="0px"
	 viewBox="0 0 58.33 82.27" style="enable-background:new 0 0 58.33 82.27;" xml:space="preserve">
<style type="text/css">
	.st0{fill:url(#SVGID_1_);}
	.st1{fill:url(#SVGID_2_);}
	.st2{fill:url(#SVGID_3_);}
	.st3{fill:url(#SVGID_4_);}
</style>
<g>
	<g>
		<linearGradient id="SVGID_1_" gradientUnits="userSpaceOnUse" x1="29.1659" y1="2.1587" x2="29.1659" y2="50.5322">
			<stop  offset="0" style="stop-color:#FFFFFF"/>
			<stop  offset="0.371" style="stop-color:#F0F9FE"/>
			<stop  offset="0.9464" style="stop-color:#D5EFFB"/>
		</linearGradient>
		<path class="st0" d="M55.83,22.51L35.97,6.73c-2-1.59-4.4-2.38-6.79-2.38c-2.4,0-4.81,0.8-6.81,2.4L2.49,22.6
			c-0.08,0.06-0.14,0.13-0.21,0.19c0,0,0-0.01,0-0.01c-0.11-1.2-1.31-0.67-1.31-0.67l-0.95,0.88L0,27.77c0,2.03,0.91,3.91,2.5,5.17
			l25.14,19.97c1.06,0.84,2.61,0.66,3.45-0.4c0.35-0.44,0.51-0.96,0.52-1.49c0,0,0.01,0,0.01,0v-4.32l-0.6-0.5l-1.94,1.45
			c0,0-0.03,0.05-0.05,0.08L5.55,29.1C5,28.65,4.91,28.07,4.91,27.77c0-0.31,0.08-0.88,0.64-1.33l19.88-15.86
			c2.2-1.76,5.28-1.76,7.49-0.01l19.86,15.78c0.56,0.44,0.64,1.02,0.64,1.32c0,0.31-0.08,0.89-0.64,1.33l-2.86,2.28
			c-0.07-0.34-0.2-0.69-0.41-0.89c-0.56-0.53-1.35-0.2-1.35-0.2l-1.59,1.1l0.72,3.72l0.01,0c0.07,0.39,0.22,0.77,0.49,1.11
			c0.85,1.06,2.39,1.23,3.45,0.39l4.6-3.67c1.58-1.26,2.49-3.15,2.49-5.18C58.33,25.65,57.42,23.76,55.83,22.51z"/>
		<linearGradient id="SVGID_2_" gradientUnits="userSpaceOnUse" x1="15.8663" y1="42.3231" x2="43.9012" y2="74.8556">
			<stop  offset="0" style="stop-color:#9DDCF9"/>
			<stop  offset="1" style="stop-color:#00ACC6"/>
		</linearGradient>
		<path class="st1" d="M58.33,58.81c0-0.92,0-4.69,0-4.69l-1.27-1.33l-0.33,1.15c0,0-0.07,0.17-0.17,0.41
			c-0.22-0.24-0.46-0.47-0.72-0.68L30.69,33.71c-0.13-0.11-0.29-0.16-0.43-0.24l-0.57-1.78l-1.83-1.32l-1.12,0.49l-0.04,4.85l0.01,0
			c0.02,0.7,0.33,1.38,0.92,1.84l25.14,19.97c0.56,0.44,0.64,1.02,0.64,1.33c0,0.31-0.08,0.88-0.64,1.33L32.9,76.04
			c-2.2,1.76-5.28,1.76-7.48,0.01L5.55,60.26C5,59.82,4.91,59.24,4.91,58.94c0-0.31,0.08-0.88,0.64-1.33l5.34-4.26
			c0.77-0.61,1.07-1.6,0.85-2.5l0.01,0L11,47.06c0,0-1.59-0.38-1.66-0.38c-0.07,0-1.03,1.57-1.03,1.57l-0.02,0.97
			c-0.16,0.08-0.32,0.17-0.47,0.29l-5.34,4.25C0.91,55.03,0,56.92,0,58.94s0.91,3.91,2.5,5.17l19.87,15.78
			c4.01,3.18,9.6,3.17,13.6-0.01l19.88-15.86c1.54-1.23,2.43-3.04,2.48-5l0.01,0c0-0.01,0-0.06,0-0.13c0-0.01,0-0.03,0-0.04
			C58.33,58.83,58.33,58.82,58.33,58.81z"/>
	</g>
	<g>
		<linearGradient id="SVGID_3_" gradientUnits="userSpaceOnUse" x1="43.0949" y1="39.3643" x2="16.7091" y2="9.0806">
			<stop  offset="0" style="stop-color:#9DDCF9"/>
			<stop  offset="1" style="stop-color:#00ACC6"/>
		</linearGradient>
		<path class="st2" d="M29.16,49.1c-0.54,0-1.07-0.18-1.53-0.53L2.5,28.59C0.91,27.34,0,25.45,0,23.43s0.9-3.91,2.49-5.18
			L22.37,2.39c4-3.18,9.59-3.19,13.6-0.01l19.87,15.78c1.59,1.26,2.5,3.14,2.5,5.17c0,2.03-0.91,3.91-2.49,5.18l-5.34,4.25
			c-1.06,0.85-2.6,0.67-3.45-0.39c-0.85-1.06-0.67-2.61,0.39-3.45l5.34-4.26c0.56-0.45,0.64-1.02,0.64-1.33
			c0-0.3-0.08-0.88-0.64-1.33L32.91,6.23c-2.2-1.75-5.28-1.75-7.48,0.01L5.55,22.09c-0.56,0.44-0.64,1.02-0.64,1.33
			c0,0.3,0.08,0.88,0.64,1.33l25.14,19.97c1.06,0.84,1.24,2.39,0.4,3.45C30.6,48.78,29.89,49.1,29.16,49.1z"/>
		<linearGradient id="SVGID_4_" gradientUnits="userSpaceOnUse" x1="29.1659" y1="30.2175" x2="29.1659" y2="78.2383">
			<stop  offset="0" style="stop-color:#FFFFFF"/>
			<stop  offset="0.371" style="stop-color:#F0F9FE"/>
			<stop  offset="0.9464" style="stop-color:#D5EFFB"/>
		</linearGradient>
		<path class="st3" d="M29.15,77.92c-2.4,0-4.79-0.79-6.79-2.38L2.5,59.76C0.91,58.51,0,56.62,0,54.6c0-2.03,0.9-3.91,2.49-5.18
			l4.6-3.67c1.06-0.84,2.61-0.67,3.45,0.39c0.85,1.06,0.67,2.61-0.39,3.45l-4.6,3.67c-0.56,0.44-0.64,1.02-0.64,1.33
			c0,0.3,0.08,0.88,0.64,1.32l19.86,15.78c2.21,1.76,5.29,1.75,7.49-0.01l19.88-15.86c0.56-0.44,0.64-1.02,0.64-1.33
			c0-0.3-0.08-0.88-0.64-1.33L27.64,33.21c-1.06-0.84-1.24-2.39-0.4-3.45c0.84-1.06,2.39-1.24,3.45-0.4l25.14,19.97
			c1.59,1.26,2.5,3.14,2.5,5.17c0,2.03-0.91,3.91-2.49,5.18L35.97,75.52C33.96,77.12,31.56,77.92,29.15,77.92z"/>
	</g>
</g>
</svg>
