<?xml version="1.0" encoding="utf-8"?>
<!-- Generator: Adobe Illustrator 24.1.1, SVG Export Plug-In . SVG Version: 6.00 Build 0)  -->
<svg version="1.1" id="Layer_1" xmlns="http://www.w3.org/2000/svg" xmlns:xlink="http://www.w3.org/1999/xlink" x="0px" y="0px"
	 viewBox="0 0 58.33 82.27" style="enable-background:new 0 0 58.33 82.27;" xml:space="preserve">
<style type="text/css">
	.st0{fill:none;stroke:#27AAE1;stroke-width:0.1;stroke-miterlimit:10;}
</style>
<g>
	<g>
		<g id="XMLID_1_">
			<g>
			</g>
			<g>
				<path class="st0" d="M0.01,23.8L0,27.77c0,2.03,0.91,3.91,2.49,5.17l25.14,19.97c1.07,0.84,2.61,0.66,3.45-0.4
					c0.35-0.44,0.52-0.96,0.53-1.48l0.01-0.01v-4.31l-0.6-0.51l-1.95,1.46c0,0-0.02,0.04-0.05,0.08L5.55,29.09
					c-0.56-0.44-0.64-1.02-0.64-1.32c0-0.31,0.08-0.89,0.64-1.33l1.06-0.85l18.81-15.01c2.21-1.75,5.29-1.76,7.49,0l18.8,14.93
					l1.06,0.84c0.56,0.44,0.65,1.02,0.65,1.33c0,0.3-0.09,0.88-0.64,1.33l-2.86,2.28c-0.08-0.34-0.2-0.69-0.42-0.89
					c-0.56-0.54-1.35-0.2-1.35-0.2l-1.58,1.11h-0.01l0.73,3.71l0.01,0.01c0.07,0.39,0.22,0.77,0.48,1.1
					c0.85,1.06,2.4,1.23,3.46,0.39l4.6-3.67c1.58-1.27,2.49-3.15,2.49-5.18c-0.01-0.74-0.13-1.47-0.37-2.15
					c-0.4-1.17-1.13-2.22-2.13-3.01L35.97,6.73c-1.99-1.59-4.39-2.38-6.78-2.38c-0.01,0-0.01,0-0.02,0c-2.4,0-4.81,0.8-6.81,2.39
					L2.48,22.6c-0.07,0.06-0.14,0.13-0.21,0.19v-0.01c-0.11-1.2-1.31-0.68-1.31-0.68l-0.95,0.88"/>
				<line class="st0" x1="0.01" y1="23.01" x2="0.01" y2="23.74"/>
				<path class="st0" d="M10.98,47.05c-0.17-0.04-1.58-0.37-1.65-0.37c-0.07,0-1.03,1.57-1.03,1.57l-0.01,0.97
					c-0.17,0.08-0.32,0.17-0.47,0.29l-5.34,4.26c-0.99,0.79-1.72,1.82-2.12,2.99C0.12,57.45,0,58.18,0,58.94
					c0,2.03,0.91,3.91,2.49,5.17l19.87,15.78c4.01,3.18,9.6,3.17,13.6-0.01l19.88-15.86c1.54-1.23,2.43-3.04,2.48-5v-0.01
					c0-0.01,0-0.06,0-0.13c0-0.01,0.01-0.02,0.01-0.04c0-0.01,0-0.02,0-0.03c0-0.74,0-3.35,0-4.32c0-0.23,0-0.37,0-0.37l-0.03-0.03
					l-1.25-1.3l-0.33,1.15c0,0-0.07,0.17-0.17,0.41c-0.22-0.24-0.46-0.47-0.72-0.68L30.69,33.71c-0.14-0.11-0.29-0.17-0.44-0.24
					l-0.56-1.78l-1.83-1.32l-1.12,0.49l-0.01,0.82l-0.02,4.03h0.01c0.02,0.69,0.33,1.38,0.91,1.84l24.08,19.13l1.06,0.84
					c0.56,0.44,0.65,1.02,0.65,1.33c0,0.3-0.09,0.88-0.64,1.33L32.9,76.03c-0.97,0.77-2.1,1.2-3.26,1.3
					c-1.47,0.12-2.99-0.31-4.23-1.29L5.55,60.26c-0.56-0.44-0.64-1.02-0.64-1.32c0-0.31,0.08-0.89,0.64-1.33l1.07-0.85l4.26-3.41
					c0.77-0.62,1.07-1.6,0.85-2.5h0.01l-0.7-3.58L11,47.06c0,0,0,0-0.01-0.01"/>
				<path class="st0" d="M31.62,46.71c-0.02,0.51-0.2,1.02-0.54,1.46c-0.48,0.6-1.2,0.92-1.92,0.92c-0.54,0-1.07-0.17-1.53-0.53
					L2.49,28.59c-1.48-1.18-2.37-2.91-2.48-4.79c0-0.02,0-0.04,0-0.06C0,23.63,0,23.53,0,23.42c0-0.14,0-0.27,0.01-0.41
					c0-0.01,0-0.02,0-0.03c0.12-1.85,1-3.56,2.47-4.73L22.36,2.39c4-3.18,9.6-3.19,13.6-0.01l19.87,15.78
					c1.58,1.26,2.49,3.14,2.5,5.17c0,0.76-0.13,1.5-0.37,2.19c-0.41,1.16-1.13,2.19-2.12,2.98l-5.34,4.26
					c-1.06,0.85-2.6,0.67-3.45-0.39c-0.25-0.32-0.41-0.68-0.48-1.06c-0.18-0.87,0.13-1.8,0.87-2.39l4.27-3.41l1.07-0.85
					c0.55-0.44,0.64-1.02,0.64-1.33c0-0.3-0.09-0.88-0.65-1.33L32.91,6.23c-1.1-0.88-2.42-1.32-3.74-1.32s-2.64,0.44-3.74,1.32
					L5.55,22.09c-0.56,0.44-0.64,1.02-0.64,1.33c0,0.3,0.08,0.88,0.64,1.33l1.06,0.84l24.08,19.12
					C31.32,45.21,31.64,45.96,31.62,46.71z"/>
				<path class="st0" d="M29.67,77.9c-0.17,0.02-0.35,0.02-0.52,0.02c-2.4,0-4.79-0.79-6.8-2.38L2.49,59.76
					c-1-0.79-1.73-1.83-2.13-3C0.13,56.08,0,55.35,0,54.6c-0.01-2.03,0.9-3.92,2.48-5.18l4.61-3.67c1.06-0.85,2.6-0.67,3.45,0.38
					c0.22,0.28,0.37,0.59,0.44,0.92h0.01c0.02,0.07,0.04,0.14,0.05,0.22c0.14,0.84-0.17,1.74-0.89,2.32l-4.6,3.67
					c-0.56,0.44-0.64,1.02-0.64,1.33s0.08,0.88,0.64,1.32l1.07,0.85l18.79,14.93c2.21,1.76,5.29,1.75,7.49-0.01l18.81-15l1.07-0.85
					c0.55-0.45,0.64-1.02,0.64-1.33c0-0.3-0.09-0.88-0.65-1.33L27.63,33.21c-0.5-0.4-0.8-0.94-0.9-1.53
					c-0.04-0.27-0.04-0.55,0.01-0.82c0.07-0.39,0.23-0.77,0.5-1.11c0.84-1.06,2.39-1.23,3.45-0.39l25.14,19.97
					c1.47,1.18,2.37,2.89,2.47,4.76c0.02,0.13,0.03,0.27,0.03,0.4c0,2.03-0.91,3.92-2.49,5.18L35.96,75.52
					C34.1,77,31.9,77.8,29.67,77.9z"/>
			</g>
		</g>
	</g>
</g>
</svg>
