<?xml version="1.0" encoding="utf-8"?>
<!-- Generator: Adobe Illustrator 24.1.1, SVG Export Plug-In . SVG Version: 6.00 Build 0)  -->
<svg version="1.1" id="Layer_1" xmlns="http://www.w3.org/2000/svg" xmlns:xlink="http://www.w3.org/1999/xlink" x="0px" y="0px"
	 viewBox="0 0 306.7 73.5" style="enable-background:new 0 0 306.7 73.5;" xml:space="preserve">
<style type="text/css">
	.st0{fill:url(#SVGID_1_);}
	.st1{fill:url(#SVGID_2_);}
	.st2{fill:url(#SVGID_3_);}
	.st3{fill:url(#SVGID_4_);}
	.st4{fill:url(#SVGID_5_);}
	.st5{fill:url(#SVGID_6_);}
	.st6{fill:url(#SVGID_7_);}
	.st7{fill:url(#SVGID_8_);}
	.st8{fill:url(#SVGID_9_);}
	.st9{fill:url(#SVGID_10_);}
	.st10{fill:url(#SVGID_11_);}
	.st11{fill:url(#SVGID_12_);}
	.st12{fill:url(#SVGID_13_);}
	.st13{fill:url(#SVGID_14_);}
</style>
<g>
	<g>
		<linearGradient id="SVGID_1_" gradientUnits="userSpaceOnUse" x1="80.5086" y1="18.7593" x2="80.8611" y2="48.0224">
			<stop  offset="0" style="stop-color:#9CDBF8"/>
			<stop  offset="1" style="stop-color:#00ABC5"/>
		</linearGradient>
		<path class="st0" d="M74.2,48.8l1.6-3.7c0.5,0.3,1.2,0.6,2,0.8c0.9,0.2,1.6,0.4,2.2,0.4c0.7,0,1.3-0.1,1.7-0.4
			c0.4-0.3,0.6-0.6,0.6-1c0-0.2-0.2-0.5-0.5-0.7c-0.3-0.2-0.8-0.5-1.5-1l-0.8-0.5c-1.2-0.7-2.2-1.3-2.8-1.8
			c-0.7-0.5-1.3-1.1-1.8-1.8c-0.5-0.8-0.8-1.6-0.8-2.6c0-1,0.3-1.9,0.8-2.7c0.6-0.8,1.4-1.4,2.4-1.9c1-0.4,2.2-0.7,3.6-0.7
			c0.9,0,1.9,0.1,2.9,0.4c1,0.3,1.8,0.6,2.5,1.1l-1.5,3.3c-1-0.3-1.7-0.5-2.2-0.6c-0.5-0.1-1.1-0.2-1.7-0.2c-0.5,0-1,0.1-1.3,0.4
			c-0.3,0.3-0.5,0.6-0.5,0.9c0,0.3,0.1,0.5,0.4,0.7c0.3,0.2,0.7,0.5,1.4,0.8l1,0.5c1.1,0.6,2.1,1.2,2.8,1.8c0.8,0.5,1.4,1.2,1.9,1.9
			c0.5,0.7,0.8,1.6,0.8,2.5c0,1-0.3,2-0.9,2.8c-0.6,0.8-1.4,1.4-2.5,1.9c-1.1,0.5-2.4,0.7-3.9,0.7c-1,0-2-0.1-3.2-0.4
			C75.8,49.6,74.9,49.2,74.2,48.8z"/>
		<linearGradient id="SVGID_2_" gradientUnits="userSpaceOnUse" x1="105.5386" y1="18.4577" x2="105.8912" y2="47.7208">
			<stop  offset="0" style="stop-color:#9CDBF8"/>
			<stop  offset="1" style="stop-color:#00ABC5"/>
		</linearGradient>
		<path class="st1" d="M105.8,31.3c1.9,0,3.6,0.4,5,1.2c1.4,0.8,2.5,2,3.3,3.4c0.8,1.4,1.1,3,1.1,4.8c0,1.9-0.4,3.5-1.2,5
			c-0.8,1.5-1.9,2.6-3.3,3.4c-1.4,0.8-3.1,1.2-4.9,1.2c-1.9,0-3.6-0.4-5-1.3c-1.4-0.8-2.5-2-3.3-3.4c-0.8-1.4-1.2-3-1.2-4.8
			c0-1.8,0.4-3.5,1.2-5c0.8-1.5,1.9-2.6,3.4-3.4C102.4,31.7,104,31.3,105.8,31.3z M101.4,40.9c0,1.6,0.4,2.9,1.2,3.9
			c0.8,1,1.9,1.5,3.2,1.5c1.3,0,2.4-0.5,3.2-1.4c0.8-1,1.3-2.3,1.3-4.1c0-1.6-0.4-2.8-1.2-3.8c-0.8-1-1.9-1.5-3.2-1.5
			c-0.8,0-1.6,0.2-2.2,0.7c-0.7,0.5-1.2,1.1-1.6,1.9C101.6,38.8,101.4,39.8,101.4,40.9z"/>
		<linearGradient id="SVGID_3_" gradientUnits="userSpaceOnUse" x1="131.9174" y1="18.1399" x2="132.27" y2="47.403">
			<stop  offset="0" style="stop-color:#9CDBF8"/>
			<stop  offset="1" style="stop-color:#00ABC5"/>
		</linearGradient>
		<path class="st2" d="M138.9,50h-13.1V31.7h4.9v14.4h7.8L138.9,50z"/>
		<linearGradient id="SVGID_4_" gradientUnits="userSpaceOnUse" x1="150.9771" y1="17.9102" x2="151.3297" y2="47.1734">
			<stop  offset="0" style="stop-color:#9CDBF8"/>
			<stop  offset="1" style="stop-color:#00ABC5"/>
		</linearGradient>
		<path class="st3" d="M148.8,50V31.7h4.9V50H148.8z"/>
		<linearGradient id="SVGID_5_" gradientUnits="userSpaceOnUse" x1="173.6493" y1="17.6371" x2="174.0018" y2="46.9002">
			<stop  offset="0" style="stop-color:#9CDBF8"/>
			<stop  offset="1" style="stop-color:#00ABC5"/>
		</linearGradient>
		<path class="st4" d="M173.7,50h-8.2V31.7h8.3c1.8,0,3.4,0.4,4.7,1.2s2.3,1.8,2.9,3.2c0.7,1.4,1,2.9,1,4.7c0,1.9-0.4,3.5-1.1,4.9
			c-0.7,1.4-1.8,2.5-3.1,3.2C176.9,49.6,175.4,50,173.7,50z M173.6,35.5h-3.1v10.6h3c1.2,0,2.1-0.5,2.9-1.4c0.7-0.9,1.1-2.3,1.1-4
			c0-1.5-0.3-2.8-1-3.7C175.7,36,174.8,35.5,173.6,35.5z"/>
		<linearGradient id="SVGID_6_" gradientUnits="userSpaceOnUse" x1="198.5321" y1="31.2917" x2="197.7762" y2="57.3691">
			<stop  offset="0" style="stop-color:#47608E"/>
			<stop  offset="1" style="stop-color:#262261"/>
		</linearGradient>
		<path class="st5" d="M191.7,48.8l1.6-3.7c0.5,0.3,1.2,0.6,2,0.8c0.9,0.2,1.6,0.4,2.2,0.4c0.7,0,1.3-0.1,1.7-0.4
			c0.4-0.3,0.6-0.6,0.6-1c0-0.2-0.2-0.5-0.5-0.7c-0.3-0.2-0.8-0.5-1.5-1l-0.8-0.5c-1.2-0.7-2.2-1.3-2.8-1.8
			c-0.7-0.5-1.3-1.1-1.8-1.8c-0.5-0.8-0.8-1.6-0.8-2.6c0-1,0.3-1.9,0.8-2.7c0.6-0.8,1.4-1.4,2.4-1.9c1-0.4,2.2-0.7,3.6-0.7
			c0.9,0,1.9,0.1,2.9,0.4c1,0.3,1.8,0.6,2.5,1.1l-1.5,3.3c-1-0.3-1.7-0.5-2.2-0.6c-0.5-0.1-1.1-0.2-1.7-0.2c-0.5,0-1,0.1-1.3,0.4
			c-0.3,0.3-0.5,0.6-0.5,0.9c0,0.3,0.1,0.5,0.4,0.7c0.3,0.2,0.7,0.5,1.4,0.8l1,0.5c1.1,0.6,2.1,1.2,2.8,1.8c0.8,0.5,1.4,1.2,1.9,1.9
			c0.5,0.7,0.8,1.6,0.8,2.5c0,1-0.3,2-0.9,2.8c-0.6,0.8-1.4,1.4-2.5,1.9c-1.1,0.5-2.4,0.7-3.9,0.7c-1,0-2-0.1-3.2-0.4
			C193.3,49.6,192.4,49.2,191.7,48.8z"/>
		<linearGradient id="SVGID_7_" gradientUnits="userSpaceOnUse" x1="221.3712" y1="31.9537" x2="220.6154" y2="58.0311">
			<stop  offset="0" style="stop-color:#47608E"/>
			<stop  offset="1" style="stop-color:#262261"/>
		</linearGradient>
		<path class="st6" d="M229.4,35.5h-5.8V50h-4.9V35.5h-5.4v-3.8h15.6L229.4,35.5z"/>
		<linearGradient id="SVGID_8_" gradientUnits="userSpaceOnUse" x1="247.2246" y1="32.7031" x2="246.4687" y2="58.7804">
			<stop  offset="0" style="stop-color:#47608E"/>
			<stop  offset="0.3091" style="stop-color:#3C4C7F"/>
			<stop  offset="1" style="stop-color:#262261"/>
		</linearGradient>
		<path class="st7" d="M249.2,31.7l6.8,18.1l-4.8,0.5l-1.3-3.9h-6.3l-1.3,3.6h-4.9l6.9-18.3H249.2z M246.7,37.5l-1.7,5h3.6
			L246.7,37.5z"/>
		<linearGradient id="SVGID_9_" gradientUnits="userSpaceOnUse" x1="272.4222" y1="33.4335" x2="271.6663" y2="59.5108">
			<stop  offset="0" style="stop-color:#47608E"/>
			<stop  offset="1" style="stop-color:#262261"/>
		</linearGradient>
		<path class="st8" d="M279.4,32.8l-1.5,3.3c-1-0.3-1.7-0.5-2.2-0.6c-0.5-0.1-1.1-0.2-1.7-0.2c-0.7,0-1.4,0.2-2.1,0.7
			c-0.7,0.5-1.2,1.1-1.6,2c-0.4,0.8-0.6,1.8-0.6,2.9c0,1.1,0.2,2.1,0.6,2.9c0.4,0.8,1,1.5,1.7,1.9c0.7,0.4,1.4,0.7,2.2,0.7
			c1.2,0,2.4-0.3,3.5-1l1.9,3.7c-0.7,0.4-1.5,0.7-2.5,1c-1,0.2-2,0.4-2.9,0.4c-1.9,0-3.6-0.4-5.1-1.2c-1.4-0.8-2.5-1.9-3.3-3.3
			c-0.8-1.4-1.1-3-1.1-4.9c0-1.8,0.4-3.5,1.2-4.9c0.8-1.5,1.9-2.6,3.3-3.4c1.4-0.8,3-1.2,4.8-1.2c0.9,0,1.9,0.1,2.9,0.4
			C277.8,32,278.7,32.4,279.4,32.8z"/>
		<linearGradient id="SVGID_10_" gradientUnits="userSpaceOnUse" x1="298.3071" y1="34.1838" x2="297.5512" y2="60.2611">
			<stop  offset="0" style="stop-color:#47608E"/>
			<stop  offset="1" style="stop-color:#262261"/>
		</linearGradient>
		<path class="st9" d="M300.5,50l-4.7-6.8l-1.4,1.3V50h-4.9V31.7h4.9V38l7.3-6.7l3.8,2.7l-6.2,5.8l7.4,10.1H300.5z"/>
	</g>
	<g>
		<g>
			<linearGradient id="SVGID_11_" gradientUnits="userSpaceOnUse" x1="40.0638" y1="38.3264" x2="15.0103" y2="14.0768">
				<stop  offset="0" style="stop-color:#47608E"/>
				<stop  offset="1" style="stop-color:#262261"/>
			</linearGradient>
			<path class="st10" d="M49.9,20.1L32.1,6c-1.8-1.4-3.9-2.1-6.1-2.1c-2.1,0-4.3,0.7-6.1,2.1L2.2,20.2c-0.1,0.1-0.1,0.1-0.2,0.2
				c0,0,0,0,0,0c-0.1-1.1-1.2-0.6-1.2-0.6L0,20.5l0,4.3c0,1.8,0.8,3.5,2.2,4.6l22.5,17.8c1,0.8,2.3,0.6,3.1-0.4
				c0.3-0.4,0.5-0.9,0.5-1.3c0,0,0,0,0,0v-3.9l-0.5-0.4L26,42.6c0,0,0,0,0,0.1L5,26c-0.5-0.4-0.6-0.9-0.6-1.2c0-0.3,0.1-0.8,0.6-1.2
				L22.7,9.5c2-1.6,4.7-1.6,6.7,0l17.8,14.1c0.5,0.4,0.6,0.9,0.6,1.2c0,0.3-0.1,0.8-0.6,1.2l-2.6,2c-0.1-0.3-0.2-0.6-0.4-0.8
				C43.7,26.7,43,27,43,27l-1.4,1l0.6,3.3l0,0c0.1,0.4,0.2,0.7,0.4,1c0.8,0.9,2.1,1.1,3.1,0.3l4.1-3.3c1.4-1.1,2.2-2.8,2.2-4.6
				C52.1,22.9,51.3,21.2,49.9,20.1z"/>
			<linearGradient id="SVGID_12_" gradientUnits="userSpaceOnUse" x1="14.179" y1="37.8222" x2="39.2325" y2="66.895">
				<stop  offset="0" style="stop-color:#9CDBF8"/>
				<stop  offset="1" style="stop-color:#00ABC5"/>
			</linearGradient>
			<path class="st11" d="M52.1,52.6c0-0.8,0-4.2,0-4.2L51,47.2l-0.3,1c0,0-0.1,0.2-0.2,0.4c-0.2-0.2-0.4-0.4-0.6-0.6L27.4,30.1
				C27.3,30,27.2,30,27,29.9l-0.5-1.6l-1.6-1.2l-1,0.4l0,4.3l0,0c0,0.6,0.3,1.2,0.8,1.6l22.5,17.8c0.5,0.4,0.6,0.9,0.6,1.2
				c0,0.3-0.1,0.8-0.6,1.2L29.4,67.9c-2,1.6-4.7,1.6-6.7,0L5,53.9c-0.5-0.4-0.6-0.9-0.6-1.2c0-0.3,0.1-0.8,0.6-1.2l4.8-3.8
				c0.7-0.5,1-1.4,0.8-2.2l0,0l-0.7-3.4c0,0-1.4-0.3-1.5-0.3c-0.1,0-0.9,1.4-0.9,1.4l0,0.9c-0.1,0.1-0.3,0.2-0.4,0.3L2.2,48
				C0.8,49.2,0,50.9,0,52.7s0.8,3.5,2.2,4.6L20,71.4c3.6,2.8,8.6,2.8,12.2,0l17.8-14.2c1.4-1.1,2.2-2.7,2.2-4.5l0,0
				C52.1,52.7,52.1,52.7,52.1,52.6C52.1,52.6,52.1,52.6,52.1,52.6C52.1,52.6,52.1,52.6,52.1,52.6z"/>
		</g>
		<g>
			<linearGradient id="SVGID_13_" gradientUnits="userSpaceOnUse" x1="38.5119" y1="35.178" x2="14.9322" y2="8.1149">
				<stop  offset="0" style="stop-color:#9CDBF8"/>
				<stop  offset="1" style="stop-color:#00ABC5"/>
			</linearGradient>
			<path class="st12" d="M26.1,43.9c-0.5,0-1-0.2-1.4-0.5L2.2,25.6C0.8,24.4,0,22.7,0,20.9c0-1.8,0.8-3.5,2.2-4.6L20,2.1
				c3.6-2.8,8.6-2.9,12.2,0l17.8,14.1c1.4,1.1,2.2,2.8,2.2,4.6c0,1.8-0.8,3.5-2.2,4.6l-4.8,3.8c-0.9,0.8-2.3,0.6-3.1-0.3
				c-0.8-0.9-0.6-2.3,0.3-3.1l4.8-3.8c0.5-0.4,0.6-0.9,0.6-1.2c0-0.3-0.1-0.8-0.6-1.2L29.4,5.6c-2-1.6-4.7-1.6-6.7,0L5,19.7
				c-0.5,0.4-0.6,0.9-0.6,1.2c0,0.3,0.1,0.8,0.6,1.2L27.4,40c0.9,0.8,1.1,2.1,0.4,3.1C27.3,43.6,26.7,43.9,26.1,43.9z"/>
			<linearGradient id="SVGID_14_" gradientUnits="userSpaceOnUse" x1="15.303" y1="35.0065" x2="36.6051" y2="62.2036">
				<stop  offset="0" style="stop-color:#47608E"/>
				<stop  offset="1" style="stop-color:#262261"/>
			</linearGradient>
			<path class="st13" d="M26.1,69.6c-2.1,0-4.3-0.7-6.1-2.1L2.2,53.4C0.8,52.3,0,50.6,0,48.8c0-1.8,0.8-3.5,2.2-4.6l4.1-3.3
				c0.9-0.8,2.3-0.6,3.1,0.3c0.8,0.9,0.6,2.3-0.3,3.1L5,47.6c-0.5,0.4-0.6,0.9-0.6,1.2c0,0.3,0.1,0.8,0.6,1.2l17.8,14.1
				c2,1.6,4.7,1.6,6.7,0l17.8-14.2c0.5-0.4,0.6-0.9,0.6-1.2c0-0.3-0.1-0.8-0.6-1.2L24.7,29.7c-0.9-0.8-1.1-2.1-0.4-3.1
				c0.8-0.9,2.1-1.1,3.1-0.4l22.5,17.8c1.4,1.1,2.2,2.8,2.2,4.6c0,1.8-0.8,3.5-2.2,4.6L32.1,67.5C30.4,68.9,28.2,69.6,26.1,69.6z"/>
		</g>
	</g>
</g>
</svg>
