<?xml version="1.0" encoding="utf-8"?>
<!-- Generator: Adobe Illustrator 24.1.1, SVG Export Plug-In . SVG Version: 6.00 Build 0)  -->
<svg version="1.1" id="Layer_1" xmlns="http://www.w3.org/2000/svg" xmlns:xlink="http://www.w3.org/1999/xlink" x="0px" y="0px"
	 viewBox="0 0 59.2 83.6" style="enable-background:new 0 0 59.2 83.6;" xml:space="preserve">
<style type="text/css">
	.st0{fill:url(#SVGID_1_);}
	.st1{fill:url(#SVGID_2_);}
	.st2{fill:url(#SVGID_3_);}
	.st3{fill:url(#SVGID_4_);}
</style>
<g>
	<g>
		<linearGradient id="SVGID_1_" gradientUnits="userSpaceOnUse" x1="45.5357" y1="43.561" x2="17.0604" y2="15.9994">
			<stop  offset="0" style="stop-color:#47608E"/>
			<stop  offset="1" style="stop-color:#262261"/>
		</linearGradient>
		<path class="st0" d="M56.7,22.9l-20.2-16c-2-1.6-4.5-2.4-6.9-2.4c-2.4,0-4.9,0.8-6.9,2.4L2.5,23c-0.1,0.1-0.1,0.1-0.2,0.2
			c0,0,0,0,0,0C2.2,21.9,1,22.5,1,22.5l-1,0.9l0,4.9c0,2.1,0.9,4,2.5,5.2l25.5,20.3c1.1,0.9,2.6,0.7,3.5-0.4c0.4-0.4,0.5-1,0.5-1.5
			c0,0,0,0,0,0v-4.4l-0.6-0.5l-2,1.5c0,0,0,0-0.1,0.1L5.6,29.6c-0.6-0.5-0.7-1-0.7-1.3c0-0.3,0.1-0.9,0.6-1.3l20.2-16.1
			c2.2-1.8,5.4-1.8,7.6,0l20.2,16c0.6,0.4,0.7,1,0.7,1.3c0,0.3-0.1,0.9-0.6,1.4l-2.9,2.3c-0.1-0.3-0.2-0.7-0.4-0.9
			c-0.6-0.5-1.4-0.2-1.4-0.2l-1.6,1.1l0.7,3.8l0,0c0.1,0.4,0.2,0.8,0.5,1.1c0.9,1.1,2.4,1.2,3.5,0.4l4.7-3.7
			c1.6-1.3,2.5-3.2,2.5-5.3C59.2,26.1,58.3,24.1,56.7,22.9z"/>
		<linearGradient id="SVGID_2_" gradientUnits="userSpaceOnUse" x1="16.1156" y1="42.988" x2="44.5909" y2="76.0315">
			<stop  offset="0" style="stop-color:#9CDBF8"/>
			<stop  offset="1" style="stop-color:#00ABC5"/>
		</linearGradient>
		<path class="st1" d="M59.2,59.7c0-0.9,0-4.8,0-4.8L58,53.6l-0.3,1.2c0,0-0.1,0.2-0.2,0.4c-0.2-0.2-0.5-0.5-0.7-0.7L31.2,34.2
			c-0.1-0.1-0.3-0.2-0.4-0.2l-0.6-1.8l-1.9-1.3l-1.1,0.5l0,4.9l0,0c0,0.7,0.3,1.4,0.9,1.9l25.5,20.3c0.6,0.4,0.7,1,0.7,1.3
			c0,0.3-0.1,0.9-0.6,1.3L33.4,77.2c-2.2,1.8-5.4,1.8-7.6,0l-20.2-16c-0.6-0.5-0.7-1-0.7-1.3c0-0.3,0.1-0.9,0.6-1.4l5.4-4.3
			c0.8-0.6,1.1-1.6,0.9-2.5l0,0l-0.8-3.9c0,0-1.6-0.4-1.7-0.4c-0.1,0-1,1.6-1,1.6l0,1c-0.2,0.1-0.3,0.2-0.5,0.3l-5.4,4.3
			C0.9,55.9,0,57.8,0,59.9s0.9,4,2.5,5.2l20.2,16c4.1,3.2,9.8,3.2,13.8,0L56.7,65c1.6-1.2,2.5-3.1,2.5-5.1l0,0
			C59.2,59.9,59.2,59.9,59.2,59.7C59.2,59.8,59.2,59.8,59.2,59.7C59.2,59.8,59.2,59.7,59.2,59.7z"/>
	</g>
	<g>
		<linearGradient id="SVGID_3_" gradientUnits="userSpaceOnUse" x1="43.7719" y1="39.9827" x2="16.9716" y2="9.2232">
			<stop  offset="0" style="stop-color:#9CDBF8"/>
			<stop  offset="1" style="stop-color:#00ABC5"/>
		</linearGradient>
		<path class="st2" d="M29.6,49.9c-0.5,0-1.1-0.2-1.6-0.5L2.5,29C0.9,27.8,0,25.9,0,23.8s0.9-4,2.5-5.3L22.7,2.4
			c4.1-3.2,9.7-3.2,13.8,0l20.2,16c1.6,1.3,2.5,3.2,2.5,5.2c0,2.1-0.9,4-2.5,5.3l-5.4,4.3c-1.1,0.9-2.6,0.7-3.5-0.4
			c-0.9-1.1-0.7-2.6,0.4-3.5l5.4-4.3c0.6-0.5,0.6-1,0.6-1.4c0-0.3-0.1-0.9-0.7-1.3l-20.2-16c-2.2-1.8-5.4-1.8-7.6,0L5.6,22.4
			c-0.6,0.5-0.7,1-0.6,1.3c0,0.3,0.1,0.9,0.7,1.3l25.5,20.3c1.1,0.9,1.3,2.4,0.4,3.5C31.1,49.5,30.4,49.9,29.6,49.9z"/>
		<linearGradient id="SVGID_4_" gradientUnits="userSpaceOnUse" x1="17.3931" y1="39.7877" x2="41.6047" y2="70.6994">
			<stop  offset="0" style="stop-color:#47608E"/>
			<stop  offset="1" style="stop-color:#262261"/>
		</linearGradient>
		<path class="st3" d="M29.6,79.1c-2.4,0-4.9-0.8-6.9-2.4l-20.2-16C0.9,59.4,0,57.5,0,55.5c0-2.1,0.9-4,2.5-5.3l4.7-3.7
			c1.1-0.9,2.6-0.7,3.5,0.4c0.9,1.1,0.7,2.6-0.4,3.5l-4.7,3.7c-0.6,0.5-0.7,1-0.6,1.4c0,0.3,0.1,0.9,0.7,1.3l20.2,16
			c2.2,1.8,5.4,1.8,7.6,0l20.2-16.1c0.6-0.5,0.6-1,0.6-1.3c0-0.3-0.1-0.9-0.7-1.3L28.1,33.7c-1.1-0.9-1.3-2.4-0.4-3.5
			c0.9-1.1,2.4-1.3,3.5-0.4l25.5,20.3c1.6,1.3,2.5,3.2,2.5,5.2c0,2.1-0.9,4-2.5,5.3L36.5,76.7C34.5,78.3,32.1,79.1,29.6,79.1z"/>
	</g>
</g>
</svg>
