<?xml version="1.0" encoding="utf-8"?>
<!-- Generator: Adobe Illustrator 24.1.1, SVG Export Plug-In . SVG Version: 6.00 Build 0)  -->
<svg version="1.1" id="Layer_1" xmlns="http://www.w3.org/2000/svg" xmlns:xlink="http://www.w3.org/1999/xlink" x="0px" y="0px"
	 viewBox="0 0 307.04 73.6" style="enable-background:new 0 0 307.04 73.6;" xml:space="preserve">
<style type="text/css">
	.st0{fill:url(#SVGID_1_);}
	.st1{fill:url(#SVGID_2_);}
	.st2{fill:url(#SVGID_3_);}
	.st3{fill:url(#SVGID_4_);}
	.st4{fill:url(#SVGID_5_);}
	.st5{fill:url(#SVGID_6_);}
	.st6{fill:url(#SVGID_7_);}
	.st7{fill:url(#SVGID_8_);}
	.st8{fill:url(#SVGID_9_);}
	.st9{fill:url(#SVGID_10_);}
	.st10{fill:url(#SVGID_11_);}
	.st11{fill:url(#SVGID_12_);}
	.st12{fill:url(#SVGID_13_);}
	.st13{fill:url(#SVGID_14_);}
</style>
<g>
	<g>
		<linearGradient id="SVGID_1_" gradientUnits="userSpaceOnUse" x1="80.5938" y1="18.7791" x2="80.9468" y2="48.0732">
			<stop  offset="0" style="stop-color:#9DDCF9"/>
			<stop  offset="1" style="stop-color:#00ACC6"/>
		</linearGradient>
		<path class="st0" d="M74.29,48.88l1.61-3.69c0.48,0.29,1.15,0.55,2,0.79c0.85,0.24,1.6,0.36,2.25,0.36c0.72,0,1.29-0.15,1.72-0.44
			c0.43-0.3,0.65-0.62,0.65-0.98c0-0.23-0.16-0.46-0.47-0.69s-0.82-0.54-1.52-0.96l-0.83-0.48c-1.22-0.72-2.17-1.31-2.85-1.79
			c-0.68-0.48-1.29-1.09-1.83-1.84c-0.54-0.75-0.81-1.61-0.81-2.56c0-1,0.28-1.91,0.85-2.7c0.56-0.8,1.36-1.42,2.38-1.87
			c1.02-0.45,2.22-0.67,3.58-0.67c0.93,0,1.89,0.13,2.87,0.4c0.98,0.27,1.82,0.64,2.52,1.1l-1.45,3.31
			c-0.95-0.32-1.68-0.54-2.19-0.65c-0.51-0.11-1.07-0.16-1.68-0.16c-0.54,0-0.97,0.13-1.31,0.38c-0.33,0.25-0.5,0.56-0.5,0.92
			c0,0.27,0.14,0.51,0.42,0.71s0.74,0.48,1.39,0.82l0.97,0.54c1.13,0.65,2.07,1.24,2.83,1.79c0.75,0.55,1.39,1.19,1.92,1.94
			c0.53,0.75,0.79,1.58,0.79,2.52c0,1.04-0.3,1.96-0.89,2.77c-0.59,0.81-1.44,1.44-2.54,1.91c-1.1,0.47-2.39,0.7-3.86,0.7
			c-0.95,0-2.01-0.14-3.19-0.43C75.92,49.64,74.99,49.29,74.29,48.88z"/>
		<linearGradient id="SVGID_2_" gradientUnits="userSpaceOnUse" x1="105.6504" y1="18.4772" x2="106.0033" y2="47.7714">
			<stop  offset="0" style="stop-color:#9DDCF9"/>
			<stop  offset="1" style="stop-color:#00ACC6"/>
		</linearGradient>
		<path class="st1" d="M105.91,31.33c1.94,0,3.62,0.41,5.05,1.24s2.52,1.96,3.28,3.39c0.76,1.44,1.14,3.03,1.14,4.79
			c0,1.87-0.4,3.53-1.2,4.99c-0.8,1.46-1.92,2.6-3.35,3.42c-1.44,0.82-3.08,1.22-4.92,1.22c-1.9,0-3.57-0.42-4.99-1.25
			c-1.43-0.83-2.53-1.97-3.3-3.4c-0.77-1.43-1.16-3.03-1.16-4.79c0-1.85,0.4-3.5,1.21-4.96c0.81-1.46,1.93-2.6,3.36-3.42
			C102.47,31.74,104.09,31.33,105.91,31.33z M101.49,40.91c0,1.58,0.39,2.87,1.17,3.88c0.78,1,1.85,1.51,3.22,1.51
			c1.31,0,2.38-0.48,3.22-1.44c0.83-0.96,1.25-2.33,1.25-4.1c0-1.56-0.4-2.84-1.2-3.83c-0.8-1-1.86-1.49-3.19-1.49
			c-0.83,0-1.57,0.23-2.25,0.69c-0.67,0.46-1.21,1.1-1.61,1.94C101.69,38.88,101.49,39.83,101.49,40.91z"/>
		<linearGradient id="SVGID_3_" gradientUnits="userSpaceOnUse" x1="132.0571" y1="18.1591" x2="132.4101" y2="47.4532">
			<stop  offset="0" style="stop-color:#9DDCF9"/>
			<stop  offset="1" style="stop-color:#00ACC6"/>
		</linearGradient>
		<path class="st2" d="M139.01,50.01h-13.13v-18.3h4.9v14.45h7.78L139.01,50.01z"/>
		<linearGradient id="SVGID_4_" gradientUnits="userSpaceOnUse" x1="151.137" y1="17.9292" x2="151.4899" y2="47.2233">
			<stop  offset="0" style="stop-color:#9DDCF9"/>
			<stop  offset="1" style="stop-color:#00ACC6"/>
		</linearGradient>
		<path class="st3" d="M148.96,50.01v-18.3h4.9v18.3H148.96z"/>
		<linearGradient id="SVGID_5_" gradientUnits="userSpaceOnUse" x1="173.8332" y1="17.6558" x2="174.1861" y2="46.9499">
			<stop  offset="0" style="stop-color:#9DDCF9"/>
			<stop  offset="1" style="stop-color:#00ACC6"/>
		</linearGradient>
		<path class="st4" d="M173.88,50.01h-8.18v-18.3h8.29c1.83,0,3.4,0.39,4.7,1.16s2.28,1.84,2.95,3.2c0.66,1.36,1,2.92,1,4.68
			c0,1.87-0.37,3.5-1.1,4.9c-0.74,1.4-1.77,2.48-3.09,3.23C177.1,49.63,175.59,50.01,173.88,50.01z M173.75,35.56h-3.15v10.6h2.96
			c1.18,0,2.15-0.47,2.89-1.4c0.74-0.93,1.12-2.27,1.12-4.01c0-1.54-0.34-2.79-1.01-3.75S174.95,35.56,173.75,35.56z"/>
		<linearGradient id="SVGID_6_" gradientUnits="userSpaceOnUse" x1="198.4679" y1="32.8104" x2="198.4679" y2="48.8121">
			<stop  offset="0" style="stop-color:#FFFFFF"/>
			<stop  offset="0.5169" style="stop-color:#FCFEFF"/>
			<stop  offset="0.7031" style="stop-color:#F3FAFE"/>
			<stop  offset="0.8353" style="stop-color:#E7F6FD"/>
			<stop  offset="0.942" style="stop-color:#D5EFFB"/>
			<stop  offset="0.9464" style="stop-color:#D5EFFB"/>
		</linearGradient>
		<path class="st5" d="M191.86,48.88l1.61-3.69c0.48,0.29,1.15,0.55,2,0.79c0.85,0.24,1.6,0.36,2.25,0.36
			c0.72,0,1.29-0.15,1.72-0.44c0.43-0.3,0.65-0.62,0.65-0.98c0-0.23-0.16-0.46-0.47-0.69s-0.82-0.54-1.52-0.96l-0.83-0.48
			c-1.22-0.72-2.17-1.31-2.85-1.79c-0.68-0.48-1.29-1.09-1.83-1.84c-0.54-0.75-0.81-1.61-0.81-2.56c0-1,0.28-1.91,0.85-2.7
			c0.56-0.8,1.36-1.42,2.38-1.87c1.02-0.45,2.22-0.67,3.58-0.67c0.93,0,1.89,0.13,2.87,0.4c0.98,0.27,1.82,0.64,2.52,1.1l-1.45,3.31
			c-0.95-0.32-1.68-0.54-2.19-0.65c-0.51-0.11-1.07-0.16-1.68-0.16c-0.54,0-0.97,0.13-1.31,0.38c-0.33,0.25-0.5,0.56-0.5,0.92
			c0,0.27,0.14,0.51,0.42,0.71s0.74,0.48,1.39,0.82l0.97,0.54c1.13,0.65,2.07,1.24,2.83,1.79c0.75,0.55,1.39,1.19,1.92,1.94
			c0.53,0.75,0.79,1.58,0.79,2.52c0,1.04-0.3,1.96-0.89,2.77c-0.59,0.81-1.44,1.44-2.54,1.91c-1.1,0.47-2.39,0.7-3.86,0.7
			c-0.95,0-2.01-0.14-3.19-0.43C193.5,49.64,192.56,49.29,191.86,48.88z"/>
		<linearGradient id="SVGID_7_" gradientUnits="userSpaceOnUse" x1="221.558" y1="32.8104" x2="221.558" y2="48.8121">
			<stop  offset="0" style="stop-color:#FFFFFF"/>
			<stop  offset="0.5169" style="stop-color:#FCFEFF"/>
			<stop  offset="0.7031" style="stop-color:#F3FAFE"/>
			<stop  offset="0.8353" style="stop-color:#E7F6FD"/>
			<stop  offset="0.942" style="stop-color:#D5EFFB"/>
			<stop  offset="0.9464" style="stop-color:#D5EFFB"/>
		</linearGradient>
		<path class="st6" d="M229.62,35.56h-5.84v14.45h-4.9V35.56h-5.38v-3.85h15.66L229.62,35.56z"/>
		<linearGradient id="SVGID_8_" gradientUnits="userSpaceOnUse" x1="246.9889" y1="32.8104" x2="246.9889" y2="48.8121">
			<stop  offset="0" style="stop-color:#FFFFFF"/>
			<stop  offset="0.4782" style="stop-color:#E7F6FD"/>
			<stop  offset="1" style="stop-color:#D5EFFB"/>
		</linearGradient>
		<path class="st7" d="M249.45,31.71l6.84,18.08l-4.82,0.48l-1.32-3.88h-6.32l-1.26,3.61h-4.87l6.86-18.3H249.45z M246.92,37.57
			l-1.75,4.98h3.58L246.92,37.57z"/>
		<linearGradient id="SVGID_9_" gradientUnits="userSpaceOnUse" x1="272.3798" y1="32.8104" x2="272.3798" y2="48.8121">
			<stop  offset="0" style="stop-color:#FFFFFF"/>
			<stop  offset="0.5169" style="stop-color:#FCFEFF"/>
			<stop  offset="0.7031" style="stop-color:#F3FAFE"/>
			<stop  offset="0.8353" style="stop-color:#E7F6FD"/>
			<stop  offset="0.942" style="stop-color:#D5EFFB"/>
			<stop  offset="0.9464" style="stop-color:#D5EFFB"/>
		</linearGradient>
		<path class="st8" d="M279.67,32.86l-1.45,3.31c-0.95-0.32-1.68-0.54-2.19-0.65c-0.51-0.11-1.07-0.16-1.68-0.16
			c-0.74,0-1.44,0.23-2.11,0.7c-0.67,0.47-1.22,1.12-1.64,1.96c-0.42,0.84-0.63,1.8-0.63,2.88c0,1.09,0.22,2.05,0.65,2.88
			s1,1.46,1.71,1.9c0.71,0.44,1.45,0.66,2.22,0.66c1.2,0,2.36-0.33,3.47-1l1.86,3.66c-0.7,0.41-1.55,0.74-2.54,0.98
			s-1.97,0.36-2.92,0.36c-1.94,0-3.62-0.4-5.06-1.2c-1.44-0.8-2.53-1.91-3.3-3.32c-0.76-1.42-1.14-3.05-1.14-4.9
			c0-1.85,0.4-3.5,1.21-4.95c0.81-1.45,1.92-2.59,3.35-3.4c1.43-0.82,3.04-1.22,4.83-1.22c0.93,0,1.89,0.13,2.87,0.4
			S278.97,32.4,279.67,32.86z"/>
		<linearGradient id="SVGID_10_" gradientUnits="userSpaceOnUse" x1="298.4306" y1="32.8104" x2="298.4306" y2="48.8121">
			<stop  offset="0" style="stop-color:#FFFFFF"/>
			<stop  offset="0.5169" style="stop-color:#FCFEFF"/>
			<stop  offset="0.7031" style="stop-color:#F3FAFE"/>
			<stop  offset="0.8353" style="stop-color:#E7F6FD"/>
			<stop  offset="0.942" style="stop-color:#D5EFFB"/>
			<stop  offset="0.9464" style="stop-color:#D5EFFB"/>
		</linearGradient>
		<path class="st9" d="M300.83,50.01l-4.68-6.84l-1.43,1.35v5.49h-4.9v-18.3h4.9v6.35l7.35-6.75l3.79,2.74l-6.22,5.81l7.4,10.15
			H300.83z"/>
	</g>
	<g>
		<g>
			<linearGradient id="SVGID_11_" gradientUnits="userSpaceOnUse" x1="26.0918" y1="48.0457" x2="26.0918" y2="3.7727">
				<stop  offset="0" style="stop-color:#FFFFFF"/>
				<stop  offset="0.5169" style="stop-color:#FCFEFF"/>
				<stop  offset="0.7031" style="stop-color:#F3FAFE"/>
				<stop  offset="0.8353" style="stop-color:#E7F6FD"/>
				<stop  offset="0.942" style="stop-color:#D5EFFB"/>
				<stop  offset="0.9464" style="stop-color:#D5EFFB"/>
			</linearGradient>
			<path class="st10" d="M49.95,20.14L32.18,6.02c-1.79-1.42-3.93-2.13-6.08-2.13c-2.15,0-4.3,0.72-6.1,2.15L2.23,20.22
				c-0.07,0.05-0.13,0.12-0.19,0.17c0,0,0-0.01,0-0.01c-0.1-1.07-1.17-0.6-1.17-0.6l-0.85,0.79L0,24.85c0,1.81,0.82,3.5,2.24,4.62
				l22.49,17.86c0.95,0.75,2.33,0.59,3.09-0.35c0.31-0.39,0.46-0.86,0.47-1.33c0,0,0.01,0,0.01,0v-3.86l-0.53-0.45l-1.74,1.3
				c0,0-0.03,0.04-0.05,0.07l-21-16.68c-0.5-0.4-0.57-0.91-0.57-1.19c0-0.27,0.07-0.79,0.57-1.19L22.75,9.47
				c1.97-1.57,4.73-1.58,6.7-0.01l17.77,14.11c0.5,0.39,0.57,0.91,0.57,1.18c0,0.27-0.07,0.79-0.57,1.19l-2.56,2.04
				c-0.06-0.31-0.17-0.61-0.37-0.8c-0.5-0.48-1.21-0.18-1.21-0.18l-1.42,0.99l0.65,3.33l0.01,0c0.06,0.35,0.2,0.69,0.44,0.99
				c0.76,0.95,2.14,1.1,3.09,0.35l4.12-3.29c1.42-1.13,2.23-2.82,2.22-4.63C52.18,22.94,51.37,21.26,49.95,20.14z"/>
			<linearGradient id="SVGID_12_" gradientUnits="userSpaceOnUse" x1="14.194" y1="37.8623" x2="39.274" y2="66.9658">
				<stop  offset="0" style="stop-color:#9DDCF9"/>
				<stop  offset="1" style="stop-color:#00ACC6"/>
			</linearGradient>
			<path class="st11" d="M52.18,52.61c0-0.82,0-4.2,0-4.2l-1.14-1.19l-0.3,1.03c0,0-0.07,0.15-0.15,0.37
				c-0.2-0.21-0.41-0.42-0.64-0.6L27.46,30.15c-0.12-0.09-0.26-0.15-0.39-0.21l-0.51-1.59l-1.63-1.18l-1,0.44l-0.03,4.34l0.01,0
				c0.02,0.62,0.29,1.23,0.82,1.65l22.49,17.86c0.5,0.39,0.57,0.91,0.57,1.19c0,0.27-0.07,0.79-0.57,1.19L29.43,68.02
				c-1.97,1.57-4.72,1.57-6.69,0.01L4.97,53.91c-0.5-0.4-0.57-0.91-0.57-1.19c0-0.27,0.07-0.79,0.57-1.19l4.77-3.81
				c0.69-0.55,0.95-1.43,0.76-2.23l0.01,0l-0.66-3.4c0,0-1.42-0.34-1.49-0.34c-0.06,0-0.92,1.41-0.92,1.41l-0.01,0.87
				C7.27,44.1,7.13,44.19,7,44.29L2.23,48.1C0.81,49.23,0,50.92,0,52.73s0.82,3.5,2.24,4.62l17.77,14.12
				c3.59,2.84,8.59,2.84,12.17-0.01l17.78-14.19c1.38-1.1,2.17-2.72,2.22-4.47l0.01,0c0-0.01,0-0.06,0-0.12c0-0.01,0-0.02,0-0.03
				C52.18,52.63,52.18,52.62,52.18,52.61z"/>
		</g>
		<g>
			<linearGradient id="SVGID_13_" gradientUnits="userSpaceOnUse" x1="38.5527" y1="35.2153" x2="14.948" y2="8.1235">
				<stop  offset="0" style="stop-color:#9DDCF9"/>
				<stop  offset="1" style="stop-color:#00ACC6"/>
			</linearGradient>
			<path class="st12" d="M26.09,43.92c-0.48,0-0.96-0.16-1.37-0.48L2.23,25.58C0.82,24.45,0,22.77,0,20.96s0.81-3.5,2.23-4.63
				L20.01,2.14c3.58-2.85,8.58-2.86,12.17-0.01l17.77,14.12c1.42,1.13,2.23,2.81,2.24,4.62c0,1.81-0.81,3.5-2.23,4.63l-4.77,3.81
				c-0.95,0.76-2.33,0.6-3.09-0.35c-0.76-0.95-0.6-2.33,0.35-3.09l4.77-3.81c0.5-0.4,0.57-0.92,0.57-1.19
				c0-0.27-0.08-0.79-0.57-1.19L29.44,5.57C27.47,4,24.72,4.01,22.75,5.58L4.97,19.76c-0.5,0.4-0.57,0.91-0.57,1.19
				c0,0.27,0.08,0.79,0.57,1.19L27.46,40c0.95,0.76,1.11,2.14,0.35,3.09C27.38,43.64,26.74,43.92,26.09,43.92z"/>
			<linearGradient id="SVGID_14_" gradientUnits="userSpaceOnUse" x1="26.0918" y1="26.8692" x2="26.0918" y2="70.6699">
				<stop  offset="0" style="stop-color:#FFFFFF"/>
				<stop  offset="0.5169" style="stop-color:#FCFEFF"/>
				<stop  offset="0.7031" style="stop-color:#F3FAFE"/>
				<stop  offset="0.8353" style="stop-color:#E7F6FD"/>
				<stop  offset="0.942" style="stop-color:#D5EFFB"/>
				<stop  offset="0.9464" style="stop-color:#D5EFFB"/>
			</linearGradient>
			<path class="st13" d="M26.08,69.71c-2.14,0-4.29-0.71-6.08-2.13L2.23,53.46C0.82,52.34,0,50.66,0,48.84
				c0-1.81,0.81-3.5,2.22-4.63l4.12-3.29c0.95-0.75,2.33-0.6,3.09,0.35c0.76,0.95,0.6,2.33-0.35,3.09l-4.12,3.28
				c-0.5,0.4-0.57,0.92-0.57,1.19c0,0.27,0.08,0.79,0.57,1.18l17.77,14.11c1.97,1.57,4.73,1.57,6.7-0.01l17.78-14.18
				c0.5-0.4,0.57-0.91,0.57-1.19c0-0.27-0.08-0.79-0.57-1.19L24.73,29.71c-0.95-0.76-1.11-2.14-0.35-3.09
				c0.75-0.95,2.14-1.11,3.09-0.35l22.49,17.86c1.42,1.13,2.23,2.81,2.24,4.62c0,1.81-0.81,3.5-2.23,4.63L32.18,67.56
				C30.38,68.99,28.23,69.71,26.08,69.71z"/>
		</g>
	</g>
</g>
</svg>
